<?xml version="1.0" standalone="no"?>
<!DOCTYPE svg PUBLIC "-//W3C//DTD SVG 1.1//EN" "http://www.w3.org/Graphics/SVG/1.1/DTD/svg11.dtd" >
<!--
2013-9-30: Created.
-->
<svg>
<metadata>
Created by iconfont
</metadata>
<defs>

<font id="iconfont" horiz-adv-x="1024" >
  <font-face
    font-family="iconfont"
    font-weight="500"
    font-stretch="normal"
    units-per-em="1024"
    ascent="896"
    descent="-128"
  />
    <missing-glyph />
    
    <glyph glyph-name="-" unicode="&#58905;" d="M78.506667-37.546667a32.426667 32.426667 0 0 0-27.306667 14.506667 196.949333 196.949333 0 0 0-34.133333 111.104V679.936A199.168 199.168 0 0 0 216.064 878.933333h591.872A199.168 199.168 0 0 0 1006.933333 679.936v-341.333333a33.109333 33.109333 0 1 0-66.048 0v341.333333a132.949333 132.949333 0 0 1-132.949333 132.949333H216.064a132.949333 132.949333 0 0 1-132.949333-132.949333v-591.872a132.096 132.096 0 0 1 22.698666-74.24 32.768 32.768 0 0 0-8.874666-45.738667 32.085333 32.085333 0 0 0-18.432-5.632zM755.882667 595.797333H249.344a32.938667 32.938667 0 0 0 0 65.877334h506.538667a32.938667 32.938667 0 0 0 0-65.877334zM426.666667 423.253333h-165.034667a33.109333 33.109333 0 0 0 0 66.048H426.666667a33.109333 33.109333 0 1 0 0-66.048zM802.133333-110.933333a204.8 204.8 0 1 0 204.8 204.8 204.8 204.8 0 0 0-204.8-204.8z m0 341.333333a138.069333 138.069333 0 1 1 138.752-136.533333A138.24 138.24 0 0 1 802.133333 230.4zM807.082667 59.733333a33.109333 33.109333 0 0 0 0 66.048 15.018667 15.018667 0 1 1-12.970667 22.869334 32.938667 32.938667 0 1 0-56.32 34.133333A81.066667 81.066667 0 1 0 807.082667 59.733333zM807.082667-36.010667a80.554667 80.554667 0 0 0-69.290667 38.912 32.938667 32.938667 0 1 0 56.32 34.133334 15.530667 15.530667 0 0 1 12.970667-7.168 15.018667 15.018667 0 1 1 0 30.037333 33.109333 33.109333 0 0 0 0 66.048 81.066667 81.066667 0 1 0 0-162.133333zM381.269333-110.933333a204.8 204.8 0 1 0 204.8 204.8 204.8 204.8 0 0 0-204.8-204.8z m0 341.333333a138.069333 138.069333 0 1 1 138.069334-136.533333 138.24 138.24 0 0 1-138.069334 136.533333zM476.672 59.733333h-95.402667a33.109333 33.109333 0 0 0 0 66.048h95.402667a33.109333 33.109333 0 1 0 0-66.048zM381.269333 59.733333a32.938667 32.938667 0 0 0-32.938666 34.133334v94.72a32.938667 32.938667 0 0 0 65.877333 0V93.866667a32.938667 32.938667 0 0 0-32.938667-34.133334z"  horiz-adv-x="1024" />

    
    <glyph glyph-name="-1" unicode="&#58904;" d="M880.469333-110.933333H143.530667a115.712 115.712 0 0 0-115.541334 115.541333V763.392A115.712 115.712 0 0 0 143.530667 878.933333h736.938666a115.712 115.712 0 0 0 115.541334-115.541333v-512a33.109333 33.109333 0 1 0-66.048 0v512a49.493333 49.493333 0 0 1-49.493334 49.493333H143.530667a49.493333 49.493333 0 0 1-49.493334-49.493333v-758.784a49.493333 49.493333 0 0 1 49.493334-49.493333h736.938666a49.493333 49.493333 0 0 1 49.493334 49.493333V37.546667a33.109333 33.109333 0 0 0 66.048 0v-32.938667A115.712 115.712 0 0 0 880.469333-110.933333zM509.781333 522.069333a104.106667 104.106667 0 0 0-55.125333 15.530667l-229.546667 144.213333a32.938667 32.938667 0 0 0 34.986667 55.808l229.546667-143.701333a37.717333 37.717333 0 0 1 40.106666 0l234.325334 143.872a32.938667 32.938667 0 1 0 34.133333-56.149333L564.394667 537.6a103.594667 103.594667 0 0 0-54.613334-15.530667zM632.832 273.408H403.456a32.938667 32.938667 0 1 0 0 65.877333h229.376a32.938667 32.938667 0 1 0 0-65.877333zM634.538667 185.173333H401.749333a33.109333 33.109333 0 0 0 0 66.048h232.789334a33.109333 33.109333 0 0 0 0-66.048zM518.144 58.88a32.768 32.768 0 0 0-32.938667 32.938667v192.853333a32.938667 32.938667 0 0 0 65.877334 0v-192.853333a32.768 32.768 0 0 0-32.938667-32.938667zM516.608 272.554667a68.266667 68.266667 0 0 0-48.469333 19.968l-87.381334 87.552A32.938667 32.938667 0 0 0 426.666667 426.666667l87.552-87.381334a2.901333 2.901333 0 0 1 3.584 0l90.453333 90.282667a32.938667 32.938667 0 1 0 46.592-46.592l-90.282667-90.453333a68.266667 68.266667 0 0 0-47.957333-19.968z"  horiz-adv-x="1024" />

    
    <glyph glyph-name="-2" unicode="&#58906;" d="M854.698667-110.933333H169.301333A152.405333 152.405333 0 0 0 17.066667 41.301333V767.829333A111.274667 111.274667 0 0 0 128.170667 878.933333h167.082666a131.242667 131.242667 0 0 0 117.248-71.509333l51.2-97.450667A54.272 54.272 0 0 1 512 680.618667h342.698667A152.405333 152.405333 0 0 0 1006.933333 528.384v-326.314667a33.109333 33.109333 0 0 0-66.048 0V528.384a86.357333 86.357333 0 0 1-86.186666 86.186667H512a119.466667 119.466667 0 0 0-106.837333 65.024l-51.2 96.938666a66.048 66.048 0 0 1-58.709334 36.352H128.170667a45.056 45.056 0 0 1-45.056-45.056v-726.528a85.333333 85.333333 0 0 1 86.186666-86.186666h685.397334a85.333333 85.333333 0 0 1 86.186666 86.186666 33.109333 33.109333 0 0 0 66.048 0A152.405333 152.405333 0 0 0 854.698667-110.933333zM503.978667 80.384a51.2 51.2 0 0 0-23.04 5.632c-26.282667 13.653333-70.826667 43.861333-72.874667 45.056a364.885333 364.885333 0 0 0-105.472 110.08c-61.098667 105.301333-3.584 179.370667 3.242667 187.733333l2.56 2.901334c70.826667 70.826667 145.237333 53.930667 195.584 11.776 50.346667 42.154667 124.757333 59.050667 195.413333-11.776l2.901333-3.242667c6.826667-8.021333 63.829333-82.261333 2.730667-187.733333a309.589333 309.589333 0 0 0-36.693333-49.152l-1.536-1.706667a649.728 649.728 0 0 0-94.890667-77.141333l-12.629333-7.68c-11.093333-6.997333-22.698667-13.994667-32.426667-19.114667a49.322667 49.322667 0 0 0-22.869333-5.632z m51.2 60.757333zM496.469333 145.066667z m15.530667 0z m-156.16 240.469333c-5.632-7.168-33.109333-47.616 4.096-111.616a303.104 303.104 0 0 1 85.333333-88.234667s34.133333-23.552 58.709334-37.034666l20.48 12.629333 13.482666 8.021333a578.218667 578.218667 0 0 1 81.92 67.072A251.221333 251.221333 0 0 1 648.533333 273.578667c37.205333 64.170667 9.728 104.789333 4.266667 111.957333-14.848 14.677333-57.344 55.637333-113.322667 0a49.664 49.664 0 0 0-69.802666 0c-56.661333 55.637333-99.157333 14.677333-113.834667 0zM948.736 796.672H694.613333a33.109333 33.109333 0 0 0 0 65.194667h254.122667a33.109333 33.109333 0 0 0 0-66.048z"  horiz-adv-x="1024" />

    
    <glyph glyph-name="-3" unicode="&#58907;" d="M531.797333-110.933333h-315.733333A199.168 199.168 0 0 0 17.066667 88.064V679.936A199.168 199.168 0 0 0 216.064 878.933333h591.872A199.168 199.168 0 0 0 1006.933333 679.936v-341.333333a33.109333 33.109333 0 1 0-66.048 0v341.333333a132.949333 132.949333 0 0 1-132.949333 132.949333H216.064a132.949333 132.949333 0 0 1-132.949333-132.949333v-591.872a132.949333 132.949333 0 0 1 132.949333-132.949333h315.733333a33.109333 33.109333 0 0 0 0-66.048zM755.882667 595.797333H249.344a32.938667 32.938667 0 0 0 0 65.877334h506.538667a32.938667 32.938667 0 0 0 0-65.877334zM426.666667 423.253333h-165.034667a33.109333 33.109333 0 0 0 0 66.048H426.666667a33.109333 33.109333 0 1 0 0-66.048zM443.733333 275.456H261.632a33.109333 33.109333 0 0 0 0 66.048H443.733333a33.109333 33.109333 0 0 0 0-66.048zM352.256 128h-90.624a32.938667 32.938667 0 1 0 0 65.877333h90.624a32.938667 32.938667 0 1 0 0-65.877333zM802.133333-110.933333a204.8 204.8 0 1 0 204.8 204.8 204.8 204.8 0 0 0-204.8-204.8z m0 341.333333a138.069333 138.069333 0 1 1 138.752-136.533333A138.24 138.24 0 0 1 802.133333 230.4zM807.082667 59.733333a33.109333 33.109333 0 0 0 0 66.048 15.018667 15.018667 0 1 1-12.970667 22.869334 32.938667 32.938667 0 1 0-56.32 34.133333A81.066667 81.066667 0 1 0 807.082667 59.733333zM807.082667-36.010667a80.554667 80.554667 0 0 0-69.290667 38.912 32.938667 32.938667 0 1 0 56.32 34.133334 15.530667 15.530667 0 0 1 12.970667-7.168 15.018667 15.018667 0 1 1 0 30.037333 33.109333 33.109333 0 0 0 0 66.048 81.066667 81.066667 0 1 0 0-162.133333z"  horiz-adv-x="1024" />

    
    <glyph glyph-name="-4" unicode="&#58908;" d="M807.936-110.933333H216.064A199.168 199.168 0 0 0 17.066667 88.064V679.936A199.168 199.168 0 0 0 216.064 878.933333h591.872A199.168 199.168 0 0 0 1006.933333 679.936v-409.6a33.109333 33.109333 0 0 0-66.048 0v409.6a132.949333 132.949333 0 0 1-132.949333 132.949333H216.064a132.949333 132.949333 0 0 1-132.949333-132.949333v-591.872a132.949333 132.949333 0 0 1 132.949333-132.949333h591.872a132.949333 132.949333 0 0 1 132.949333 132.949333v25.088a33.109333 33.109333 0 0 0 66.048 0v-25.088A199.168 199.168 0 0 0 807.936-110.933333zM445.44 148.138667a39.765333 39.765333 0 0 0-38.229333 28.842666l-74.069334 227.157334-11.776-42.325334a105.642667 105.642667 0 0 0-97.109333-63.146666l-57.685333-2.048a32.938667 32.938667 0 0 0-2.218667 65.877333l58.709333 2.048a40.277333 40.277333 0 0 1 36.864 22.186667l27.477334 102.4a47.786667 47.786667 0 0 0 89.6-5.632l68.266666-210.944 104.277334 310.272a53.930667 53.930667 0 0 0 42.154666 37.205333 54.613333 54.613333 0 0 0 53.418667-20.309333l3.584-4.778667 65.536-207.872a30.72 30.72 0 0 1 20.992-8.362667h123.221333a33.109333 33.109333 0 1 0 0-66.048h-122.709333A97.28 97.28 0 0 0 659.285333 349.866667l-3.584 4.608-54.613333 172.885333-117.76-351.061333a39.082667 39.082667 0 0 0-37.888-28.16zM421.034667 196.266667a17.066667 17.066667 0 0 1 0-1.706667z m48.810666 0v-1.365334z m-155.989333 266.581333v-0.853333z m299.008 98.986667s0-0.341333 0 0z"  horiz-adv-x="1024" />

    
    <glyph glyph-name="-5" unicode="&#58909;" d="M127.317333-20.138667A110.250667 110.250667 0 0 0 17.066667 89.941333V678.058667a110.250667 110.250667 0 0 0 213.504 38.4 34.133333 34.133333 0 0 0-62.464-23.381334 43.52 43.52 0 0 1-84.48-15.018666v-588.117334a43.690667 43.690667 0 0 1 43.690666-43.52A44.202667 44.202667 0 0 1 168.789333 76.8a34.133333 34.133333 0 1 0 63.317334-20.650667 109.909333 109.909333 0 0 0-104.789334-76.288zM281.088-82.090667A110.250667 110.250667 0 0 0 170.666667 27.989333v38.229334a34.133333 34.133333 0 1 0 66.56 0v-38.229334a43.690667 43.690667 0 0 1 87.210666 0V259.242667a34.133333 34.133333 0 0 0 66.730667 0v-231.253334a110.250667 110.250667 0 0 0-110.08-110.08zM358.4 475.477333a34.133333 34.133333 0 0 0-34.133333 33.28V740.010667a43.690667 43.690667 0 0 1-87.210667 0v-35.84a33.28 33.28 0 1 0-66.56 0v35.84a110.250667 110.250667 0 0 0 220.501333 0v-231.253334A34.133333 34.133333 0 0 0 358.4 475.477333zM607.402667 475.477333H358.4a34.133333 34.133333 0 1 0 0 66.56h249.002667a34.133333 34.133333 0 1 0 0-66.56zM607.402667 225.962667H358.4a34.133333 34.133333 0 1 0 0 66.56h249.002667a33.28 33.28 0 0 0 0-66.56zM973.653333 225.962667a34.133333 34.133333 0 0 0-33.28 33.28V678.058667a43.52 43.52 0 0 1-85.333333 15.018666 34.133333 34.133333 0 0 0-62.464 23.381334A110.250667 110.250667 0 0 0 1006.933333 678.058667v-418.816a34.133333 34.133333 0 0 0-33.28-33.28zM896.682667-20.138667a109.909333 109.909333 0 0 0-104.789334 76.117334A34.133333 34.133333 0 0 0 855.210667 76.8a44.202667 44.202667 0 0 1 41.472-30.208 43.690667 43.690667 0 0 1 43.690666 43.52 34.133333 34.133333 0 0 0 66.56 0 110.250667 110.250667 0 0 0-110.250666-110.250667zM742.912-82.090667a110.250667 110.250667 0 0 0-110.250667 110.08V259.242667a34.133333 34.133333 0 0 0 66.730667 0v-231.253334a43.690667 43.690667 0 0 1 87.210667 0v38.229334a34.133333 34.133333 0 0 0 66.56 0v-38.229334a110.250667 110.250667 0 0 0-110.250667-110.08zM665.6 475.477333a34.133333 34.133333 0 0 0-34.133333 33.28V740.010667a110.250667 110.250667 0 0 0 221.866666 0v-35.84a34.133333 34.133333 0 0 0-66.56 0v35.84a43.690667 43.690667 0 0 1-87.210666 0v-231.253334A34.133333 34.133333 0 0 0 665.6 475.477333zM665.6 475.477333H416.597333a34.133333 34.133333 0 0 0 0 66.56H665.6a34.133333 34.133333 0 1 0 0-66.56zM665.6 225.962667H416.597333a33.28 33.28 0 0 0 0 66.56H665.6a34.133333 34.133333 0 1 0 0-66.56z"  horiz-adv-x="1024" />

    
    <glyph glyph-name="-6" unicode="&#58910;" d="M531.797333-110.933333h-315.733333A199.168 199.168 0 0 0 17.066667 88.064V679.936A199.168 199.168 0 0 0 216.064 878.933333h591.872A199.168 199.168 0 0 0 1006.933333 679.936v-341.333333a33.109333 33.109333 0 1 0-66.048 0v341.333333a132.949333 132.949333 0 0 1-132.949333 132.949333H216.064a132.949333 132.949333 0 0 1-132.949333-132.949333v-591.872a132.949333 132.949333 0 0 1 132.949333-132.949333h315.733333a33.109333 33.109333 0 0 0 0-66.048zM755.882667 595.797333H249.344a32.938667 32.938667 0 0 0 0 65.877334h506.538667a32.938667 32.938667 0 0 0 0-65.877334zM426.666667 423.253333h-165.034667a33.109333 33.109333 0 0 0 0 66.048H426.666667a33.109333 33.109333 0 1 0 0-66.048zM443.733333 275.456H261.632a33.109333 33.109333 0 0 0 0 66.048H443.733333a33.109333 33.109333 0 0 0 0-66.048zM352.256 128h-90.624a32.938667 32.938667 0 1 0 0 65.877333h90.624a32.938667 32.938667 0 1 0 0-65.877333zM802.133333-110.933333a204.8 204.8 0 1 0 204.8 204.8 204.8 204.8 0 0 0-204.8-204.8z m0 341.333333a138.069333 138.069333 0 1 1 138.752-136.533333A138.24 138.24 0 0 1 802.133333 230.4zM898.389333 59.733333H802.133333a33.109333 33.109333 0 0 0 0 66.048h95.573334a33.109333 33.109333 0 0 0 0-66.048zM802.133333 59.733333a33.109333 33.109333 0 0 0-32.256 34.133334v94.72a33.109333 33.109333 0 0 0 66.048 0V93.866667A33.109333 33.109333 0 0 0 802.133333 59.733333z"  horiz-adv-x="1024" />

    
    <glyph glyph-name="-7" unicode="&#58911;" d="M107.690667 332.8A32.938667 32.938667 0 0 0 85.333333 341.845333a238.933333 238.933333 0 0 0 161.962667 413.354667h529.066667a238.933333 238.933333 0 0 0 163.498666-412.501333 34.133333 34.133333 0 0 0-46.08 48.981333 170.666667 170.666667 0 0 1 54.272 124.757333 171.861333 171.861333 0 0 1-171.349333 171.690667h-529.066667a170.666667 170.666667 0 0 1-117.077333-297.130667A34.133333 34.133333 0 0 0 107.690667 332.8zM656.384-110.933333H355.669333a72.192 72.192 0 0 0 0 144.213333 34.133333 34.133333 0 0 0 0-67.242667 4.949333 4.949333 0 1 1 0-9.728h300.714667a4.949333 4.949333 0 0 1 0 9.728 34.133333 34.133333 0 1 0 0 67.242667 72.192 72.192 0 0 0 0-144.213333zM512 121.002667a157.866667 157.866667 0 0 0-50.346667 8.192 307.2 307.2 0 0 0-209.237333 283.989333V705.365333a34.133333 34.133333 0 0 0 67.072 0v-292.181333c0-6.656 3.072-166.229333 163.669333-220.330667a90.112 90.112 0 0 1 57.685334 0 254.976 254.976 0 0 1 65.365333 32.768 34.133333 34.133333 0 1 0 38.912-54.613333 316.928 316.928 0 0 0-81.92-41.813333 157.866667 157.866667 0 0 0-51.2-8.192zM721.749333 295.253333a32.256 32.256 0 0 0-11.093333 1.877334 34.133333 34.133333 0 0 0-20.650667 42.666666 252.757333 252.757333 0 0 1 14.506667 73.557334V705.365333a34.133333 34.133333 0 0 0 67.072 0v-292.181333a318.976 318.976 0 0 0-18.090667-95.402667 34.133333 34.133333 0 0 0-31.744-22.528zM512-103.936a34.133333 34.133333 0 0 0-34.133333 34.133333V154.624a34.133333 34.133333 0 0 0 67.242666 0v-225.109333A34.133333 34.133333 0 0 0 512-103.936zM648.533333 812.202667H375.466667A34.133333 34.133333 0 0 0 375.466667 878.933333h273.066666a34.133333 34.133333 0 0 0 0-67.242666z"  horiz-adv-x="1024" />

    
    <glyph glyph-name="-8" unicode="&#58912;" d="M507.733333 103.936a387.754667 387.754667 0 1 0 387.754667 396.629333 33.109333 33.109333 0 0 0-66.048-1.536A321.877333 321.877333 0 1 1 765.269333 298.666667a33.109333 33.109333 0 0 0 52.736-39.765334 392.533333 392.533333 0 0 0-36.010666-41.301333 386.730667 386.730667 0 0 0-274.261334-113.664zM507.733333 281.6A209.578667 209.578667 0 1 0 716.8 491.52 209.749333 209.749333 0 0 0 507.733333 281.6z m0 352.938667a143.530667 143.530667 0 1 1 143.530667-143.530667 143.530667 143.530667 0 0 1-143.530667 144.042667zM350.378667-110.933333a42.837333 42.837333 0 0 0-38.570667 23.722666l-31.402667 62.805334a33.109333 33.109333 0 0 1-35.328 21.162666l-81.408-11.264a45.568 45.568 0 0 0-45.568 68.266667l116.053334 198.144 57.002666-34.133333-94.72-161.621334 39.594667 5.461334A98.304 98.304 0 0 0 341.333333 1.024l9.045334-17.066667 81.749333 163.498667 59.050667-29.525333-102.4-204.8A42.666667 42.666667 0 0 0 350.549333-110.933333zM637.098667-110.933333a42.666667 42.666667 0 0 0-38.570667 23.722666l-102.4 204.8 59.050667 29.525334 81.749333-163.498667 9.045333 17.066667A98.304 98.304 0 0 0 750.933333 62.464l39.594667-5.461333-94.549333 161.621333 56.832 34.133333 116.053333-198.144a44.885333 44.885333 0 0 0-1.536-48.298666 45.738667 45.738667 0 0 0-44.032-19.797334l-81.237333 11.264a32.597333 32.597333 0 0 1-35.328-21.162666l-1.536-3.242667-30.037334-59.562667A42.837333 42.837333 0 0 0 637.098667-110.933333z"  horiz-adv-x="1024" />

    
    <glyph glyph-name="-9" unicode="&#58913;" d="M512 160.768A223.232 223.232 0 1 0 735.232 384a220.16 220.16 0 0 0-13.141333-75.093333 32.938667 32.938667 0 0 0-62.122667 22.357333 153.6 153.6 0 0 1 9.216 52.736 157.696 157.696 0 1 1-77.312-135.168 32.938667 32.938667 0 0 0 34.133333-56.661333A221.866667 221.866667 0 0 0 512 160.768zM327.338667-70.656a68.266667 68.266667 0 0 0-28.16 5.973333l-2.389334 1.365334-62.464 35.84A65.877333 65.877333 0 0 0 204.8 20.138667v3.925333c0 63.488 0 90.282667 2.048 103.765333 0 3.754667-1.536 11.605333-2.56 17.066667v5.632a136.533333 136.533333 0 0 1-17.066667 34.133333l-19.456 31.573334a102.4 102.4 0 0 1-26.965333 24.917333l-92.16 53.248A61.781333 61.781333 0 0 0 17.066667 344.576v71.68a65.536 65.536 0 0 0 35.157333 57.856l73.216 39.936A117.589333 117.589333 0 0 1 162.133333 541.013333l1.877334 1.877334A273.066667 273.066667 0 0 1 187.733333 580.096l1.706667 2.901333a121.002667 121.002667 0 0 1 17.066667 54.954667c0 10.069333-2.218667 82.944-2.56 100.181333A64.341333 64.341333 0 0 0 230.570667 793.6h1.536l68.266666 39.424a67.242667 67.242667 0 0 0 51.2 0l3.413334-1.706667 79.189333-46.250666a118.101333 118.101333 0 0 1 57.514667-20.309334H494.933333a145.749333 145.749333 0 0 1 86.528 13.653334s76.458667 46.762667 86.698667 52.736a64.170667 64.170667 0 0 0 51.2 4.266666l5.632-2.389333 66.389333-37.717333a65.365333 65.365333 0 0 0 30.037334-56.32l1.706666-107.349334v-1.194666a104.96 104.96 0 0 1 11.605334-37.205334l19.456-34.133333a111.957333 111.957333 0 0 1 34.133333-36.181333l79.189333-45.056A63.317333 63.317333 0 0 0 1006.933333 424.106667v-74.410667a69.632 69.632 0 0 0-24.917333-51.2l-3.925333-2.901333L887.466667 241.493333A122.88 122.88 0 0 1 858.794667 213.333333l-12.629334-21.162666a32.938667 32.938667 0 1 0-56.661333 34.133333l14.506667 24.064A182.613333 182.613333 0 0 0 853.333333 297.813333l87.552 53.077334v66.048L938.666667 418.133333l-2.389334 1.194667-80.554666 45.738667a176.981333 176.981333 0 0 0-59.392 60.586666l-20.138667 35.328a165.717333 165.717333 0 0 0-19.456 71.168l-1.706667 105.642667a4.266667 4.266667 0 0 1 0 1.365333l-57.173333 32.768-81.237333-49.493333c-3.413333-2.389333-46.762667-30.037333-126.122667-23.722667a183.125333 183.125333 0 0 0-92.16 30.890667l-72.704 42.496-55.978667-32.426667c0-21.162667 2.56-101.034667 2.56-101.034666v-1.877334a187.733333 187.733333 0 0 0-27.306666-89.941333 296.277333 296.277333 0 0 0-33.28-49.664A184.32 184.32 0 0 0 153.6 454.656l-70.826667-39.082667v-65.024l89.770667-51.2a162.986667 162.986667 0 0 0 49.322667-44.373333l1.706666-2.56 19.968-32.085333a164.693333 164.693333 0 0 0 26.453334-66.389334 106.154667 106.154667 0 0 0 2.218666-36.010666c0-10.752-1.024-51.2-1.194666-89.941334 13.312-7.68 47.786667-27.648 57.002666-32.768 12.970667 7.509333 79.530667 44.373333 89.088 49.664s51.2 27.989333 136.533334 18.773334c10.24 0 43.349333-5.290667 95.232-38.912l50.346666-28.501334 56.832 32.768a20.821333 20.821333 0 0 1 0 4.949334 32.938667 32.938667 0 1 0 65.877334 3.413333 65.194667 65.194667 0 0 0-30.378667-63.829333l-68.266667-39.424a61.781333 61.781333 0 0 0-51.2 1.536l-58.368 34.133333a159.744 159.744 0 0 1-64.170666 28.842667h-2.218667c-68.266667 7.509333-95.061333-8.533333-95.232-8.704l-2.218667-1.365334-90.794666-51.2a64.170667 64.170667 0 0 0-31.744-8.021333z m432.128 102.4l-1.365334-0.853333zM82.432 415.402667z"  horiz-adv-x="1024" />

    
    <glyph glyph-name="-10" unicode="&#58914;" d="M512-110.933333a494.933333 494.933333 0 1 0 437.077333 262.656 32.938667 32.938667 0 1 0-58.197333 31.061333A428.885333 428.885333 0 1 1 747.178667 25.6a34.133333 34.133333 0 0 0 45.738666-9.557333 32.768 32.768 0 0 0-9.557333-45.568A491.690667 491.690667 0 0 0 512-110.933333zM482.474667 224.768a99.84 99.84 0 0 0-71.509334 30.037333l-98.816 99.84A32.938667 32.938667 0 0 0 358.4 401.066667l98.645333-99.84a34.133333 34.133333 0 0 1 25.088-10.410667 34.133333 34.133333 0 0 1 24.917334 10.24l232.789333 232.448A32.938667 32.938667 0 0 0 786.602667 486.4L553.984 254.464a100.522667 100.522667 0 0 0-71.509333-29.696z"  horiz-adv-x="1024" />

    
    <glyph glyph-name="-11" unicode="&#58915;" d="M915.626667-105.301333H108.373333A91.477333 91.477333 0 0 0 17.066667-13.994667V594.602667a91.477333 91.477333 0 0 0 91.306666 91.306666h140.970667a25.429333 25.429333 0 0 1 25.258667 25.429334V781.994667a91.477333 91.477333 0 0 0 91.477333 91.306666h291.84a91.477333 91.477333 0 0 0 91.477333-91.306666v-70.656a25.429333 25.429333 0 0 1 25.258667-25.429334h125.781333c73.216 0 106.496-47.274667 106.496-91.306666v-422.741334a33.109333 33.109333 0 0 0-66.048 0V594.602667c0 23.552-30.890667 25.429333-40.448 25.429333h-125.781333A91.477333 91.477333 0 0 0 682.666667 711.338667V781.994667a25.429333 25.429333 0 0 1-25.429334 25.429333H366.08A25.429333 25.429333 0 0 1 341.333333 781.994667v-70.656a91.477333 91.477333 0 0 0-91.306666-91.306667h-141.653334a25.429333 25.429333 0 0 1-25.258666-25.429333v-608.597334a25.429333 25.429333 0 0 1 25.258666-25.429333h807.253334a25.429333 25.429333 0 0 1 25.258666 25.429333 33.109333 33.109333 0 0 0 66.048 0 91.477333 91.477333 0 0 0-91.306666-91.306666zM571.562667 478.890667a15.701333 15.701333 0 0 0 15.701333-15.701334v-77.312a15.701333 15.701333 0 0 1 15.701333-15.701333h77.312a15.701333 15.701333 0 0 0 15.701334-15.701333v-119.466667a15.701333 15.701333 0 0 0-15.701334-15.701333h-77.312a15.701333 15.701333 0 0 1-15.701333-15.701334v-77.312a15.701333 15.701333 0 0 0-15.701333-15.701333h-119.466667a15.701333 15.701333 0 0 0-15.701333 15.701333v77.653334a15.701333 15.701333 0 0 1-15.701334 15.701333h-76.970666a15.701333 15.701333 0 0 0-15.701334 15.701333v119.466667a15.701333 15.701333 0 0 0 15.701334 15.701333h77.312a15.701333 15.701333 0 0 1 15.701333 15.701334v76.970666a15.701333 15.701333 0 0 0 15.701333 15.701334h119.466667m0 66.048h-119.466667a81.92 81.92 0 0 1-81.749333-81.749334v-26.965333h-26.965333a81.92 81.92 0 0 1-81.749334-81.749333v-119.466667a81.92 81.92 0 0 1 81.749334-81.749333h26.965333v-26.965334a81.92 81.92 0 0 1 81.749333-81.749333h119.466667a81.92 81.92 0 0 1 81.749333 81.749333v27.306667h26.965334a81.92 81.92 0 0 1 81.749333 81.749333v119.466667a81.92 81.92 0 0 1-81.749333 81.749333h-27.306667v26.624a81.92 81.92 0 0 1-81.749333 81.749334zM617.472 621.056H406.528a33.109333 33.109333 0 0 0 0 66.048h210.944a33.109333 33.109333 0 0 0 0-66.048z"  horiz-adv-x="1024" />

    
    <glyph glyph-name="-12" unicode="&#58916;" d="M512-72.533333A502.272 502.272 0 0 0 17.066667 371.541333v24.917334a502.272 502.272 0 0 0 494.933333 443.733333 500.736 500.736 0 0 0 494.933333-452.608V384l-1.365333-11.434667a512 512 0 0 0-70.997333-204.8 33.109333 33.109333 0 0 0-56.490667 34.133334 442.709333 442.709333 0 0 1 61.952 178.346666V384A435.029333 435.029333 0 0 1 512 774.485333 436.053333 436.053333 0 0 1 83.114667 390.314667v-12.629334A436.053333 436.053333 0 0 1 512-6.485333a423.936 423.936 0 0 1 236.202667 71.68A32.938667 32.938667 0 1 0 785.066667 10.410667a488.96 488.96 0 0 0-273.066667-82.944zM512 168.789333A215.210667 215.210667 0 1 0 727.210667 384 215.381333 215.381333 0 0 0 512 168.789333z m0 364.544A149.333333 149.333333 0 1 1 661.333333 384 149.674667 149.674667 0 0 1 512 533.333333z"  horiz-adv-x="1024" />

    
    <glyph glyph-name="-13" unicode="&#58917;" d="M824.661333-110.933333H212.138667a158.037333 158.037333 0 0 0-157.866667 157.866666V332.8a158.037333 158.037333 0 0 0 157.866667 157.866667h599.722666A158.037333 158.037333 0 0 0 969.728 332.8v-193.194667a32.938667 32.938667 0 1 0-65.877333 0V332.8a91.989333 91.989333 0 0 1-91.989334 91.818667H212.138667A91.989333 91.989333 0 0 1 119.466667 332.8v-285.866667a91.989333 91.989333 0 0 1 91.989333-91.818666h613.205333a79.36 79.36 0 0 1 77.482667 62.976 32.938667 32.938667 0 0 0 64.682667-13.141334A145.578667 145.578667 0 0 0 824.661333-110.933333zM918.528 424.618667H105.472a80.725333 80.725333 0 0 0-80.554667 80.554666v53.930667A80.725333 80.725333 0 0 0 105.472 640h813.056a80.725333 80.725333 0 0 0 80.554667-80.554667v-54.272a80.725333 80.725333 0 0 0-80.554667-80.554666zM105.472 573.610667a14.506667 14.506667 0 0 1-14.506667-14.506667v-53.930667a14.506667 14.506667 0 0 1 14.506667-14.506666h813.056a14.506667 14.506667 0 0 1 14.506667 14.506666v53.930667a14.506667 14.506667 0 0 1-14.506667 14.506667zM287.232 595.456a32.426667 32.426667 0 0 0-14.165333 3.242667 32.938667 32.938667 0 0 0-15.701334 43.861333 281.6 281.6 0 0 0 141.653334 137.898667 33.109333 33.109333 0 0 0 26.624-60.586667 215.04 215.04 0 0 1-108.544-105.472 33.109333 33.109333 0 0 0-29.866667-18.944zM736.938667 595.285333a32.938667 32.938667 0 0 0-29.866667 18.944 217.088 217.088 0 0 1-107.178667 105.130667 32.938667 32.938667 0 1 0 26.965334 60.074667 280.917333 280.917333 0 0 0 139.946666-136.533334 32.938667 32.938667 0 0 0-15.872-44.544 31.914667 31.914667 0 0 0-13.994666-3.072zM611.669333 717.141333a33.109333 33.109333 0 0 0-32.938666 31.744 66.730667 66.730667 0 0 1-133.12 4.608 32.938667 32.938667 0 1 0-65.536 6.997334 132.778667 132.778667 0 0 0 264.533333-9.045334 32.938667 32.938667 0 0 0-31.573333-34.133333zM381.44 6.144a33.109333 33.109333 0 0 0-32.938667 33.109333v307.2a33.109333 33.109333 0 0 0 66.048 0v-307.2a33.109333 33.109333 0 0 0-33.109333-33.109333zM688.64 289.962667h-150.357333a32.938667 32.938667 0 1 0 0 65.877333h150.357333a32.938667 32.938667 0 0 0 0-65.877333zM613.376 166.570667h-75.093333a33.109333 33.109333 0 1 0 0 66.048h75.093333a33.109333 33.109333 0 0 0 0-66.048zM673.621333 51.882667h-135.338666a33.109333 33.109333 0 1 0 0 66.048h135.338666a33.109333 33.109333 0 0 0 0-66.048z"  horiz-adv-x="1024" />

    
    <glyph glyph-name="-14" unicode="&#58918;" d="M818.005333 154.965333H314.368a116.906667 116.906667 0 0 0-116.053333 107.349334l-32.426667 418.986666a69.632 69.632 0 0 1-31.232 52.906667l-102.4 68.266667A32.938667 32.938667 0 1 0 68.266667 857.258667l102.4-68.266667a134.656 134.656 0 0 0 60.586666-102.4l32.426667-418.986667a51.2 51.2 0 0 1 51.2-46.421333h503.125333A50.176 50.176 0 0 1 868.010667 264.533333a10.069333 10.069333 0 0 1 0 2.389334l72.362666 374.101333a50.346667 50.346667 0 0 1-50.176 55.296h-459.093333a32.938667 32.938667 0 0 0 0 65.877333h459.434667A116.224 116.224 0 0 0 1006.933333 633.002667a11.605333 11.605333 0 0 0 0-2.389334l-73.557333-374.272a116.394667 116.394667 0 0 0-115.370667-101.376zM972.8 636.928zM383.317333-94.72a118.101333 118.101333 0 1 0 118.272 118.101333 118.272 118.272 0 0 0-118.272-118.101333z m0 170.666667a52.053333 52.053333 0 1 1 52.224-52.053334 52.224 52.224 0 0 1-52.224 51.541334zM781.141333-94.72a118.101333 118.101333 0 1 0 118.101334 118.101333 118.272 118.272 0 0 0-118.101334-118.101333z m0 170.666667a52.053333 52.053333 0 1 1 52.224-52.053334 52.224 52.224 0 0 1-52.224 51.541334zM765.610667 506.368H366.08a32.938667 32.938667 0 1 0 0 65.877333h399.530667a32.938667 32.938667 0 1 0 0-65.877333zM770.730667 334.336H371.2a33.109333 33.109333 0 0 0 0 66.048h399.530667a33.109333 33.109333 0 1 0 0-66.048z"  horiz-adv-x="1024" />

    
    <glyph glyph-name="-15" unicode="&#58919;" d="M926.72-105.984H684.885333a80.213333 80.213333 0 0 0-80.213333 80.213333V366.933333a80.384 80.384 0 0 0 80.213333 80.384H926.72A80.384 80.384 0 0 0 1006.933333 366.933333v-273.066666a32.938667 32.938667 0 0 0-65.706666 0V366.933333a14.677333 14.677333 0 0 1-14.506667 14.677334H684.885333a14.677333 14.677333 0 0 1-14.506666-14.677334v-392.533333a14.848 14.848 0 0 1 14.506666-14.677333H926.72a14.848 14.848 0 0 1 14.506667 14.677333A32.938667 32.938667 0 0 0 1006.933333-25.6a80.213333 80.213333 0 0 0-80.213333-80.384zM805.717333 382.122667a32.768 32.768 0 0 0-32.768 32.768V843.776a32.938667 32.938667 0 0 0 65.706667 0v-428.885333a32.768 32.768 0 0 0-32.938667-32.768zM936.106667 729.941333H675.328a32.938667 32.938667 0 0 0 0 65.706667h260.778667a32.938667 32.938667 0 1 0 0-65.706667zM936.106667 604.501333H675.328a32.768 32.768 0 0 0 0 65.536h260.778667a32.768 32.768 0 1 0 0-65.536zM441.173333-108.544h-375.466666A49.152 49.152 0 0 0 17.066667-59.733333V309.248a49.152 49.152 0 0 0 49.322666 49.152h375.466667a49.152 49.152 0 0 0 49.322667-49.152V-59.733333a49.152 49.152 0 0 0-50.005334-48.810667zM82.773333-42.666667h341.333334V292.864h-341.333334zM369.493333 292.864H141.312a46.592 46.592 0 0 0-46.592 46.592V452.266667a46.592 46.592 0 0 0 46.592 46.08h228.181333a46.592 46.592 0 0 0 46.592-46.08v-112.298667a46.592 46.592 0 0 0-46.592-47.104zM160.426667 358.4h190.122666v74.24H160.426667zM305.664 432.64H208.213333a32.938667 32.938667 0 1 0 0 65.706667h86.186667V781.312l-77.482667-63.488 1.536-151.381333a32.768 32.768 0 0 0-32.426666-33.109334 32.768 32.768 0 0 0-32.426667 32.426667l-2.389333 161.792a44.885333 44.885333 0 0 0 17.066666 34.133333l112.810667 92.330667A51.2 51.2 0 0 0 333.653333 861.866667a44.885333 44.885333 0 0 0 26.453334-41.472v-336.725334a52.906667 52.906667 0 0 0-54.442667-51.029333z"  horiz-adv-x="1024" />

    
    <glyph glyph-name="-16" unicode="&#58920;" d="M379.050667-110.933333A32.938667 32.938667 0 0 0 358.4-52.394667l131.754667 108.032a82.261333 82.261333 0 0 0 52.224 18.773334h197.973333a186.709333 186.709333 0 0 1 186.197333 186.538666V626.517333A186.709333 186.709333 0 0 1 740.010667 812.885333H283.989333A186.709333 186.709333 0 0 1 97.450667 626.517333v-365.568a186.709333 186.709333 0 0 1 186.538666-186.538666h95.061334a33.109333 33.109333 0 0 0 0-66.048h-95.061334a252.757333 252.757333 0 0 0-252.416 252.586666V626.517333A252.757333 252.757333 0 0 0 283.989333 878.933333h456.021334a252.757333 252.757333 0 0 0 252.416-252.416v-365.568A252.757333 252.757333 0 0 0 740.010667 8.533333h-197.973334a15.701333 15.701333 0 0 1-10.410666-3.754666l-131.584-108.032a32.768 32.768 0 0 0-20.992-7.68zM724.48 528.896H296.96a33.109333 33.109333 0 1 0 0 66.048h427.52a33.109333 33.109333 0 0 0 0-66.048zM724.48 393.898667H296.96a33.109333 33.109333 0 1 0 0 66.048h427.52a33.109333 33.109333 0 0 0 0-66.048zM724.48 259.072H296.96a32.938667 32.938667 0 1 0 0 65.877333h427.52a32.938667 32.938667 0 0 0 0-65.877333z"  horiz-adv-x="1024" />

    
    <glyph glyph-name="-17" unicode="&#58921;" d="M843.946667-110.933333h-663.893334A163.157333 163.157333 0 0 0 17.066667 52.053333v663.893334A163.157333 163.157333 0 0 0 180.053333 878.933333h663.893334A163.157333 163.157333 0 0 0 1006.933333 715.946667v-324.266667a33.109333 33.109333 0 0 0-66.048 0v324.266667a96.938667 96.938667 0 0 1-96.938666 96.938666h-663.893334a96.938667 96.938667 0 0 1-96.938666-96.938666v-663.893334a96.938667 96.938667 0 0 1 96.938666-96.938666h663.893334a96.938667 96.938667 0 0 1 96.938666 96.938666V110.933333A33.109333 33.109333 0 0 0 1006.933333 110.933333v-59.733333a163.157333 163.157333 0 0 0-162.986666-162.133333zM512 581.802667A436.053333 436.053333 0 0 0 189.610667 725.333333 32.938667 32.938667 0 1 0 238.933333 769.194667a370.005333 370.005333 0 0 1 273.066667-121.344 370.005333 370.005333 0 0 1 273.066667 121.344A32.938667 32.938667 0 1 0 834.389333 725.333333 435.541333 435.541333 0 0 0 512 581.802667zM513.706667-10.581333a33.109333 33.109333 0 0 0-33.109334 33.109333v477.866667a33.109333 33.109333 0 0 0 66.048 0v-477.866667a33.109333 33.109333 0 0 0-32.938666-33.109333zM512 228.522667c-82.944 0-150.357333 55.978667-150.357333 124.928s67.413333 125.098667 150.357333 125.098666 150.357333-56.149333 150.357333-125.098666a32.938667 32.938667 0 0 0-65.877333 0c0 32.085333-38.741333 59.050667-85.333333 59.050666S426.666667 385.536 426.666667 353.450667s38.741333-59.050667 84.48-59.050667a32.938667 32.938667 0 1 0 0-65.877333zM512 44.373333c-82.944 0-150.357333 55.978667-150.357333 124.928a32.938667 32.938667 0 1 0 65.877333 0c0-31.914667 38.741333-58.368 84.48-58.368s85.333333 27.136 85.333333 59.050667-38.741333 59.221333-85.333333 59.221333a32.938667 32.938667 0 1 0 0 65.877334c82.944 0 150.357333-55.978667 150.357333-125.098667S594.944 44.373333 512 44.373333z"  horiz-adv-x="1024" />

    
    <glyph glyph-name="-18" unicode="&#58922;" d="M716.8 581.973333h-150.016a32.938667 32.938667 0 0 0 0 65.877334H716.8a32.938667 32.938667 0 0 0 0-65.877334zM347.477333 251.392a32.938667 32.938667 0 0 0-33.109333 32.938667V614.912a33.109333 33.109333 0 0 0 66.048 0v-330.581333a32.938667 32.938667 0 0 0-32.938667-32.938667zM421.717333 251.392H273.066667a33.109333 33.109333 0 0 0 0 66.048h148.48a33.109333 33.109333 0 0 0 0-66.048zM282.453333 518.997333a32.938667 32.938667 0 0 0-23.381333 9.557334 34.133333 34.133333 0 0 0 0 46.762666L324.266667 640a32.938667 32.938667 0 1 0 46.592-46.762667l-64.341334-64.341333a32.597333 32.597333 0 0 0-24.064-9.898667zM488.96-87.893333H156.501333A139.776 139.776 0 0 0 17.066667 51.541333v665.6a139.776 139.776 0 0 0 139.434666 138.752h665.6a139.605333 139.605333 0 0 0 139.264-139.434666v-288.938667a32.938667 32.938667 0 1 0-65.877333 0V716.458667a73.557333 73.557333 0 0 1-73.386667 73.386666h-665.6a73.557333 73.557333 0 0 1-73.386666-73.386666v-665.6a73.557333 73.557333 0 0 1 73.386666-73.386667h332.458667a33.109333 33.109333 0 0 0 0-66.048zM786.944-83.285333a47.786667 47.786667 0 0 0-22.528 5.461333c-25.258667 13.141333-68.266667 41.813333-69.632 43.008a347.989333 347.989333 0 0 0-101.034667 105.472c-59.050667 101.376-3.413333 172.714667 3.072 180.394667l2.730667 2.901333c68.266667 68.266667 138.922667 52.224 187.733333 12.117333 48.469333 40.106667 119.466667 55.637333 187.733334-12.117333l2.901333-3.072c6.314667-7.850667 61.44-79.36 2.730667-180.565333a299.178667 299.178667 0 0 0-35.157334-47.274667l-1.536-1.536A641.877333 641.877333 0 0 0 853.333333-52.224l-12.117333-7.338667c-10.581333-6.656-21.674667-13.482667-31.061333-18.261333a47.274667 47.274667 0 0 0-23.210667-5.461333z m7.850667 64zM646.826667 208.042667c-5.12-6.656-30.72-44.544 4.096-104.618667a288.938667 288.938667 0 0 1 80.896-83.626667s32.597333-22.016 55.125333-34.133333l18.944 11.434667 12.629333 7.850666a564.394667 564.394667 0 0 1 77.994667 63.658667 235.178667 235.178667 0 0 1 26.282667 35.157333c34.133333 59.733333 10.069333 97.450667 4.437333 104.789334-14.165333 13.994667-53.76 51.2-105.813333 0a48.981333 48.981333 0 0 0-68.266667 0c-53.418667 51.2-92.330667 13.312-106.325333-0.512z m128.170666 47.104z"  horiz-adv-x="1024" />

    
    <glyph glyph-name="-19" unicode="&#58923;" d="M897.194667-48.298667h-358.4a82.602667 82.602667 0 0 0-76.117334 50.346667 32.938667 32.938667 0 1 0 60.757334 25.770667 17.066667 17.066667 0 0 1 15.36-10.069334h358.4a17.066667 17.066667 0 0 1 10.922666 4.096 32.938667 32.938667 0 1 0 43.861334-49.322666 82.432 82.432 0 0 0-54.784-20.821334zM946.688 83.456a32.938667 32.938667 0 0 0-32.938667 32.938667v20.650666a17.066667 17.066667 0 0 1-17.066666 17.066667h-375.466667a33.109333 33.109333 0 0 0 0 66.048h375.466667a82.773333 82.773333 0 0 0 82.602666-82.602667v-20.650666a32.938667 32.938667 0 0 0-32.597333-33.450667zM343.552-110.933333h-238.933333a60.074667 60.074667 0 0 0-60.074667 59.904v55.808a60.074667 60.074667 0 0 0 60.074667 59.904h195.242666L501.76 213.333333a33.109333 33.109333 0 0 0 39.082667-53.248L337.066667 10.24a59.562667 59.562667 0 0 0-35.328-11.605333H110.250667v-43.52H341.333333l172.544 113.834666a32.938667 32.938667 0 1 0 36.352-54.954666l-173.226666-114.346667a57.685333 57.685333 0 0 0-33.450667-10.581333z m-3.242667 65.194666zM246.954667 80.384A127.829333 127.829333 0 1 0 375.466667 208.213333a128 128 0 0 0-128.512-127.829333z m0 189.610667a61.952 61.952 0 1 1 61.781333-61.781334 61.952 61.952 0 0 1-61.781333 61.781334zM679.424 622.933333a127.829333 127.829333 0 1 0 127.829333 128.170667A128 128 0 0 0 679.424 622.933333z m0 189.610667a61.781333 61.781333 0 1 1 61.781333-61.781333 61.781333 61.781333 0 0 1-61.781333 62.122666zM473.770667 249.514667a69.973333 69.973333 0 0 0-36.693334 9.386666l-3.584 2.048-6.826666 6.314667a74.752 74.752 0 0 0-21.674667 52.906667A73.557333 73.557333 0 0 0 426.666667 372.906667l213.333333 213.504a106.325333 106.325333 0 0 0 149.845333 0 59.733333 59.733333 0 0 0 6.314667-8.021334c46.250667-44.544 106.325333-238.933333 105.642667-275.968a32.938667 32.938667 0 0 0-31.402667-32.426666 32.938667 32.938667 0 0 0-32.426667 34.133333c0 30.378667-59.733333 204.8-85.333333 226.986667a43.008 43.008 0 0 0-9.216 10.752 41.301333 41.301333 0 0 1-55.125333-1.536l-213.333334-213.333334a8.704 8.704 0 0 1-2.56-6.144 10.069333 10.069333 0 0 1 1.536-5.12c16.213333-2.048 66.901333 24.064 90.453334 43.178667l4.096 3.072 96.597333 69.461333a32.938667 32.938667 0 0 0 38.570667-53.589333l-98.816-70.997333c-13.824-10.752-77.141333-57.344-131.072-57.344z m269.994666 290.133333z m50.005334 41.472zM629.418667 224.597333A32.768 32.768 0 0 0 597.333333 257.536v106.154667a32.938667 32.938667 0 1 0 65.877334 0v-106.154667a32.768 32.768 0 0 0-33.792-32.938667z"  horiz-adv-x="1024" />

    
    <glyph glyph-name="-20" unicode="&#58924;" d="M512-110.933333a494.933333 494.933333 0 1 0 437.077333 262.656 32.938667 32.938667 0 1 0-58.197333 31.061333A428.885333 428.885333 0 1 1 747.178667 25.6a34.133333 34.133333 0 0 0 45.738666-9.557333 32.768 32.768 0 0 0-9.557333-45.568A491.690667 491.690667 0 0 0 512-110.933333zM523.264 293.034667a33.109333 33.109333 0 0 0-32.938667 33.109333V589.994667a33.109333 33.109333 0 1 0 66.048 0v-263.850667a33.109333 33.109333 0 0 0-33.109333-33.109333zM626.005333 222.037333a34.133333 34.133333 0 0 0-23.210666 9.557334L460.8 373.930667a32.938667 32.938667 0 0 0 46.762667 46.592l142.165333-142.165334a32.938667 32.938667 0 0 0 0-46.762666 34.133333 34.133333 0 0 0-23.722667-9.557334z"  horiz-adv-x="1024" />

    
    <glyph glyph-name="-21" unicode="&#58925;" d="M864.256-103.424H173.909333A157.184 157.184 0 0 0 17.066667 53.418667V755.882667a115.712 115.712 0 0 0 115.541333 115.541333h504.149333a32.938667 32.938667 0 0 0 0-65.877333H132.608a49.834667 49.834667 0 0 1-49.664-49.664v-702.464a90.965333 90.965333 0 0 1 90.965333-90.965334h690.346667a61.269333 61.269333 0 0 1 40.277333 14.848 33.109333 33.109333 0 0 0 43.008-50.176 127.658667 127.658667 0 0 0-83.285333-30.549333zM958.976 93.866667a32.768 32.768 0 0 0-32.938667 34.133333V391.168a32.938667 32.938667 0 0 0 65.877334 0V128a32.768 32.768 0 0 0-32.938667-34.133333zM332.288 110.933333a42.496 42.496 0 0 0-37.034667 62.976l100.864 182.954667a32.768 32.768 0 0 0 5.461334 7.338667L842.410667 804.181333c34.133333 34.133333 93.184 29.696 132.096-9.386666s43.349333-98.304 9.386666-132.266667L543.232 221.866667a28.330667 28.330667 0 0 0-7.338667-5.461334l-182.954666-100.864a42.325333 42.325333 0 0 0-20.650667-4.608z m119.466667 209.92L392.533333 213.333333l107.52 59.221334 437.248 436.736c6.997333 6.997333 4.437333 25.088-9.386666 38.912s-31.914667 17.066667-38.912 9.386666z m68.266666-74.922666z"  horiz-adv-x="1024" />

    
    <glyph glyph-name="-22" unicode="&#58926;" d="M326.485333-84.138667a67.242667 67.242667 0 0 0-47.616 19.797334l-238.933333 238.933333a67.242667 67.242667 0 0 0 0 95.061333l93.184 94.208a67.242667 67.242667 0 0 0 95.061333 0l238.933334-238.933333a68.266667 68.266667 0 0 0 0-95.061333l-93.866667-93.696a66.56 66.56 0 0 0-46.762667-20.309334z m-231.594666 307.2L326.485333-8.533333l85.333334 85.333333-231.253334 231.594667zM829.269333 418.133333a68.266667 68.266667 0 0 0-47.616 19.626667l-238.933333 238.933333a67.242667 67.242667 0 0 0 0 95.061334l93.696 93.696a67.242667 67.242667 0 0 0 95.061333 0l238.933334-238.933334a66.901333 66.901333 0 0 0 0-94.890666l-93.696-93.866667A68.266667 68.266667 0 0 0 829.269333 418.133333zM597.333333 725.333333l231.936-231.424 85.333334 85.333334L682.666667 810.666667zM285.525333 428.373333a36.181333 36.181333 0 0 0-25.770666 10.752 36.522667 36.522667 0 0 0 0 51.2l155.648 155.648a36.522667 36.522667 0 1 0 51.2-51.2l-155.648-155.648a36.181333 36.181333 0 0 0-25.429334-10.752zM561.493333 152.405333a37.034667 37.034667 0 0 0-25.770666 9.728 36.522667 36.522667 0 0 0 0 51.2l155.648 155.818667a36.522667 36.522667 0 0 0 51.2-51.2L587.264 162.133333a36.352 36.352 0 0 0-25.770667-9.728zM972.8-103.594667a36.181333 36.181333 0 0 0-25.770667 10.752L620.714667 233.813333a36.522667 36.522667 0 1 0 51.2 51.2l326.997333-326.314666a36.522667 36.522667 0 0 0 0-51.2 36.181333 36.181333 0 0 0-26.112-11.093334z"  horiz-adv-x="1024" />

    
    <glyph glyph-name="-23" unicode="&#58927;" d="M325.461333 89.770667H143.872A126.805333 126.805333 0 0 0 17.066667 216.576V509.44a126.805333 126.805333 0 0 0 126.805333 126.805333h207.872a33.109333 33.109333 0 0 0 0-66.048H143.872a60.757333 60.757333 0 0 1-60.757333-60.757333v-292.864a60.928 60.928 0 0 1 60.757333-60.928h181.589333a32.938667 32.938667 0 0 0 0-65.877333zM733.866667 89.770667a32.938667 32.938667 0 1 0 0 65.877333 207.36 207.36 0 0 1 0 414.549333 33.109333 33.109333 0 1 0 0 66.048 273.066667 273.066667 0 0 0 0-546.133333zM733.866667 191.488a33.109333 33.109333 0 1 0 0 66.048 105.472 105.472 0 0 1 0 210.944 32.938667 32.938667 0 1 0 0 65.877333 170.666667 170.666667 0 0 0 0-342.869333zM473.6-45.056a32.938667 32.938667 0 0 0-22.357333 8.704c-57.685333 53.589333-146.944 133.632-147.797334 134.485333a32.938667 32.938667 0 1 0 44.032 49.152c0.853333-0.853333 90.624-81.237333 148.650667-135.168a32.938667 32.938667 0 0 0-22.528-57.173333zM583.168 8.533333a33.109333 33.109333 0 0 0-32.938667 32.938667V731.818667a12.288 12.288 0 0 1-7.509333-5.290667c-39.082667-46.421333-165.376-145.066667-170.666667-149.333333a32.938667 32.938667 0 0 0-40.618666 51.2c35.157333 27.306667 132.266667 105.642667 161.109333 139.776a76.970667 76.970667 0 0 0 62.122667 30.037333 60.928 60.928 0 0 0 61.610666-59.904v-697.002667A33.109333 33.109333 0 0 0 583.168 8.533333z"  horiz-adv-x="1024" />

    
    <glyph glyph-name="-24" unicode="&#58928;" d="M883.882667-81.066667H140.117333A123.392 123.392 0 0 0 17.066667 42.666667V588.8a123.221333 123.221333 0 0 0 123.050666 123.050667h146.090667a33.109333 33.109333 0 0 0 0-66.048H140.117333A57.173333 57.173333 0 0 1 83.114667 588.8v-546.133333a57.173333 57.173333 0 0 1 57.002666-57.173334h743.765334A57.173333 57.173333 0 0 1 940.885333 42.666667 33.109333 33.109333 0 0 0 1006.933333 42.666667a123.392 123.392 0 0 0-123.050666-123.733334zM973.994667 185.685333a33.109333 33.109333 0 0 0-33.109334 33.109334V588.8a57.173333 57.173333 0 0 1-57.002666 57.002667h-146.090667a33.109333 33.109333 0 0 0 0 66.048h146.090667A123.221333 123.221333 0 0 0 1006.933333 588.8v-370.005333a33.109333 33.109333 0 0 0-32.938666-33.109334zM737.792 645.290667a32.938667 32.938667 0 0 0-32.938667 33.109333V725.333333A57.173333 57.173333 0 0 1 648.533333 783.018667H376.32A57.173333 57.173333 0 0 1 319.146667 725.333333v-47.445333a32.938667 32.938667 0 1 0-65.877334 0V725.333333a123.221333 123.221333 0 0 0 123.050667 123.221334H648.533333A123.221333 123.221333 0 0 0 770.730667 725.333333v-47.445333a32.938667 32.938667 0 0 0-32.938667-32.597333zM517.802667 33.962667a273.066667 273.066667 0 1 0 273.066666 273.066666 274.090667 274.090667 0 0 0-273.066666-273.066666z m0 481.28a207.701333 207.701333 0 1 1 207.701333-207.701334 207.872 207.872 0 0 1-207.701333 207.701334zM394.24 332.8a30.890667 30.890667 0 0 0-13.994667 3.072 33.109333 33.109333 0 0 0-15.872 43.861333A169.642667 169.642667 0 0 0 464.896 469.333333a32.938667 32.938667 0 1 0 20.650667-62.634666 104.277333 104.277333 0 0 1-61.44-54.272A32.938667 32.938667 0 0 0 394.24 332.8zM864.938667 530.432h-85.333334a33.109333 33.109333 0 0 0 0 66.048h85.333334a33.109333 33.109333 0 0 0 0-66.048z"  horiz-adv-x="1024" />

    
    <glyph glyph-name="-25" unicode="&#58929;" d="M881.664-80.725333H142.336c-70.314667 0-125.269333 44.885333-125.269333 102.4V741.546667c0 58.368 56.32 102.4 131.072 102.4h133.290666a32.938667 32.938667 0 1 0 0-65.877334H148.138667C109.226667 777.898667 83.114667 759.466667 83.114667 741.546667v-720.042667c0-17.066667 24.234667-36.352 59.221333-36.352h739.328c34.986667 0 59.221333 19.114667 59.221333 36.352V47.786667a33.109333 33.109333 0 0 0 66.048 0v-26.282667c0-57.344-54.954667-102.229333-125.269333-102.229333zM973.994667 186.88a32.938667 32.938667 0 0 0-33.109334 32.938667V741.546667c0 17.066667-24.234667 36.352-59.221333 36.352H747.52a32.938667 32.938667 0 1 0 0 65.877333h134.144c70.314667 0 125.269333-44.885333 125.269333-102.4v-521.557333a32.938667 32.938667 0 0 0-32.938666-32.938667zM578.730667 782.848h-133.461334a32.938667 32.938667 0 1 0 0 65.877333h133.461334a32.938667 32.938667 0 1 0 0-65.877333zM660.48 392.362667H381.269333a33.109333 33.109333 0 0 0 0 66.048H660.48a33.109333 33.109333 0 0 0 0-66.048zM662.357333 285.184H379.221333a33.109333 33.109333 0 0 0 0 66.048h283.136a33.109333 33.109333 0 1 0 0-66.048zM520.874667 131.584a32.768 32.768 0 0 0-32.938667 32.938667V399.189333a32.938667 32.938667 0 0 0 65.877333 0v-234.666666a32.768 32.768 0 0 0-32.938666-32.938667zM518.997333 391.509333a76.458667 76.458667 0 0 0-53.930666 22.186667L358.4 520.533333a32.938667 32.938667 0 0 0 46.592 46.592L512 460.458667a10.069333 10.069333 0 0 1 14.506667 0l109.909333 109.909333A32.938667 32.938667 0 1 0 682.666667 523.776l-110.08-110.08a75.776 75.776 0 0 0-53.589334-22.186667z"  horiz-adv-x="1024" />

    
    <glyph glyph-name="-26" unicode="&#58930;" d="M402.261333-70.485333h-71.509333a180.736 180.736 0 0 0-147.285333 82.602666c-66.901333 102.4-119.466667 273.066667-146.090667 354.986667-4.778667 15.36-9.728 31.232-11.264 34.133333-10.752 24.576-19.968 100.010667 22.016 146.090667 36.693333 40.106667 96.426667 46.08 177.493333 17.066667 165.205333-58.197333 207.018667-57.856 270.165334-57.685334h31.914666c61.44 0 95.061333 0 271.189334 58.026667 81.92 27.136 141.824 20.309333 178.005333-20.138667 42.154667-47.274667 30.378667-119.466667 21.162667-141.482666-1.365333-4.437333-5.12-20.309333-8.704-35.669334-16.042667-68.266667-45.568-194.56-85.333334-266.410666a32.938667 32.938667 0 1 0-57.685333 31.914666C881.493333 196.266667 910.848 322.56 925.013333 382.805333a290.133333 290.133333 0 0 0 12.629334 47.104c3.925333 9.728 8.362667 51.2-10.581334 71.68S872.106667 520.533333 819.2 502.442667c-186.197333-61.952-226.304-61.781333-292.181333-61.269334h-30.890667c-68.266667 0-116.394667 0-292.522667 61.610667C152.234667 520.533333 114.688 520.533333 97.792 503.466667c-19.968-20.48-15.018667-65.024-11.434667-74.069334 2.56-5.461333 5.632-15.189333 13.994667-41.984 22.869333-72.704 76.458667-243.2 138.581333-338.773333a114.858667 114.858667 0 0 1 93.354667-52.394667c112.469333-2.56 176.981333 1.706667 177.664 1.706667a32.938667 32.938667 0 0 0 4.266667-65.877333c-2.218667-0.170667-41.301333-2.56-111.957334-2.56z m595.626667 473.429333zM621.568-70.485333c-70.826667 0-109.909333 2.389333-111.786667 2.56a32.938667 32.938667 0 0 0 4.266667 65.877333s58.026667-3.584 158.72-2.048a32.938667 32.938667 0 0 0 34.133333-32.426667 34.133333 34.133333 0 0 0-32.597333-34.133333zM761.514667 505.173333a32.938667 32.938667 0 0 0-32.938667 32.426667C728.576 667.306667 631.466667 772.437333 512 772.437333S295.424 667.306667 295.424 537.6a33.109333 33.109333 0 0 0-66.048 0c0 165.546667 126.805333 300.373333 282.624 300.373333S794.624 703.658667 794.624 537.6a32.938667 32.938667 0 0 0-33.109333-32.426667z"  horiz-adv-x="1024" />

    
    <glyph glyph-name="-27" unicode="&#58931;" d="M394.410667 488.106667h-55.808a32.938667 32.938667 0 1 0 0 65.877333h55.808a32.938667 32.938667 0 0 0 0-65.877333zM703.317333 488.106667H485.546667a32.938667 32.938667 0 0 0 0 65.877333h217.770666a32.938667 32.938667 0 1 0 0-65.877333zM394.410667 351.061333h-55.808a32.938667 32.938667 0 1 0 0 65.877334h55.808a32.938667 32.938667 0 0 0 0-65.877334zM703.317333 351.061333H485.546667a32.938667 32.938667 0 0 0 0 65.877334h217.770666a32.938667 32.938667 0 1 0 0-65.877334zM394.410667 228.864h-55.808a33.109333 33.109333 0 1 0 0 66.048h55.808a33.109333 33.109333 0 0 0 0-66.048zM703.317333 228.864H485.546667a33.109333 33.109333 0 0 0 0 66.048h217.770666a33.109333 33.109333 0 1 0 0-66.048zM512-110.933333a494.933333 494.933333 0 1 0 431.616 252.757333 32.938667 32.938667 0 0 0-57.514667 32.256 427.690667 427.690667 0 1 1-173.909333-169.642667 32.938667 32.938667 0 1 0 30.72-58.368A497.664 497.664 0 0 0 512-110.933333z"  horiz-adv-x="1024" />

    
    <glyph glyph-name="-28" unicode="&#58932;" d="M887.466667 81.408a32.256 32.256 0 0 0-19.285334 6.314667 32.768 32.768 0 0 0-7.509333 45.909333A428.714667 428.714667 0 0 1 264.874667 734.037333a33.109333 33.109333 0 0 0-38.229334 53.930667 494.933333 494.933333 0 0 0 686.933334-692.906667 32.597333 32.597333 0 0 0-26.112-13.653333zM512-110.933333A494.933333 494.933333 0 0 0 114.688 678.741333 32.938667 32.938667 0 1 0 167.594667 640a428.714667 428.714667 0 0 1 596.309333-602.794667A32.938667 32.938667 0 1 0 802.133333-16.042667 493.226667 493.226667 0 0 0 512-110.933333zM722.090667 455.68h-419.84a33.109333 33.109333 0 0 0 0 66.048h419.84a33.109333 33.109333 0 0 0 0-66.048zM302.250667 455.68a33.109333 33.109333 0 0 0-23.381334 56.32l118.442667 118.272A32.938667 32.938667 0 0 0 443.733333 583.68l-118.272-118.272a33.109333 33.109333 0 0 0-23.210666-9.728zM722.090667 255.658667h-419.84a32.938667 32.938667 0 0 0 0 65.877333h419.84a32.938667 32.938667 0 0 0 0-65.877333zM603.648 137.557333a32.256 32.256 0 0 0-23.381333 9.557334 32.768 32.768 0 0 0 0 46.592l118.272 118.272A32.938667 32.938667 0 0 0 745.301333 264.533333l-118.272-118.272a32.597333 32.597333 0 0 0-23.381333-8.704z"  horiz-adv-x="1024" />

    
    <glyph glyph-name="-29" unicode="&#58933;" d="M870.4-111.786667H153.6a136.533333 136.533333 0 0 0-136.533333 136.533334V725.333333a136.533333 136.533333 0 0 0 136.533333 136.533334h716.8a136.533333 136.533333 0 0 0 136.533333-136.533334v-502.954666a33.109333 33.109333 0 1 0-66.048 0V725.333333A70.826667 70.826667 0 0 1 870.4 796.842667H153.6A70.826667 70.826667 0 0 1 83.114667 725.333333v-699.733333A70.826667 70.826667 0 0 1 153.6-45.909333h716.8A70.826667 70.826667 0 0 1 940.885333 25.6 33.109333 33.109333 0 0 0 1006.933333 25.6a136.533333 136.533333 0 0 0-136.533333-137.386667zM382.976 401.066667h-82.773333a32.938667 32.938667 0 1 0 0 65.877333h82.773333a32.938667 32.938667 0 1 0 0-65.877333zM723.797333 401.066667H533.162667a32.938667 32.938667 0 1 0 0 65.877333h190.634666a32.938667 32.938667 0 1 0 0-65.877333zM382.976 259.925333h-82.773333a33.109333 33.109333 0 0 0 0 66.048h82.773333a33.109333 33.109333 0 1 0 0-66.048zM723.797333 259.925333H533.162667a33.109333 33.109333 0 1 0 0 66.048h190.634666a33.109333 33.109333 0 0 0 0-66.048zM382.976 118.442667h-82.773333a32.938667 32.938667 0 1 0 0 65.877333h82.773333a32.938667 32.938667 0 1 0 0-65.877333zM723.797333 118.442667H533.162667a32.938667 32.938667 0 1 0 0 65.877333h190.634666a32.938667 32.938667 0 1 0 0-65.877333zM629.930667 631.125333h-9.216a33.109333 33.109333 0 0 0 0 66.048h9.216a33.109333 33.109333 0 1 0 0-66.048zM403.285333 631.125333h-9.216a33.109333 33.109333 0 1 0 0 66.048h9.216a33.109333 33.109333 0 0 0 0-66.048z"  horiz-adv-x="1024" />

    
    <glyph glyph-name="-30" unicode="&#58934;" d="M512-110.933333A494.933333 494.933333 0 1 0 769.024 807.082667a33.109333 33.109333 0 0 0-34.133333-56.490667A428.885333 428.885333 0 1 1 793.6 59.733333a32.938667 32.938667 0 0 0 42.666667-49.152A494.933333 494.933333 0 0 0 512-110.933333zM955.733333 222.378667a34.133333 34.133333 0 0 0-9.216 1.365333A32.938667 32.938667 0 0 0 924.16 264.533333a433.493333 433.493333 0 0 1 17.066667 119.466667A426.666667 426.666667 0 0 1 870.4 620.373333 32.938667 32.938667 0 1 0 925.013333 657.066667a494.933333 494.933333 0 0 0 62.464-410.453334A32.938667 32.938667 0 0 0 955.733333 222.378667zM326.144 157.696a33.109333 33.109333 0 0 0-31.573333 42.666667l66.048 213.845333a32.085333 32.085333 0 0 0 7.850666 13.312L725.333333 795.306667a32.938667 32.938667 0 0 0 47.274667-45.909334L421.376 387.242667l-44.373333-143.530667 140.458666 49.834667 351.573334 362.325333a32.938667 32.938667 0 1 0 47.274666-45.909333L559.445333 242.176a32.256 32.256 0 0 0-12.629333-8.192l-209.578667-74.410667a35.157333 35.157333 0 0 0-11.093333-1.877333z"  horiz-adv-x="1024" />

    
    <glyph glyph-name="-31" unicode="&#58935;" d="M526.677333-105.984H214.186667A197.461333 197.461333 0 0 0 17.066667 91.136V676.864A197.461333 197.461333 0 0 0 214.186667 873.984h585.557333a197.461333 197.461333 0 0 0 197.12-197.12V476.16a32.938667 32.938667 0 1 0-65.877333 0V676.864a131.413333 131.413333 0 0 1-131.242667 131.072H214.186667a131.242667 131.242667 0 0 1-131.072-131.072v-585.728a131.242667 131.242667 0 0 1 131.072-131.072h312.490666a33.109333 33.109333 0 0 0 0-66.048zM748.202667 593.066667H247.296a33.109333 33.109333 0 1 0 0 66.048h500.906667a33.109333 33.109333 0 0 0 0-66.048zM421.717333 422.570667H259.413333a32.938667 32.938667 0 1 0 0 65.877333h162.304a32.938667 32.938667 0 1 0 0-65.877333zM438.613333 276.309333H259.413333a33.109333 33.109333 0 1 0 0 66.048h179.2a33.109333 33.109333 0 0 0 0-66.048zM349.013333 130.901333H259.413333a32.938667 32.938667 0 1 0 0 65.877334h89.6a32.938667 32.938667 0 1 0 0-65.877334zM773.632-105.984a202.24 202.24 0 1 0 202.24 202.24 202.581333 202.581333 0 0 0-202.24-202.24z m0 338.432a136.533333 136.533333 0 1 1 136.533333-136.533333 136.533333 136.533333 0 0 1-136.533333 136.533333zM671.573333 198.314667a33.109333 33.109333 0 0 0-26.282666 13.141333l-103.253334 136.533333A32.938667 32.938667 0 0 0 568.32 401.066667h105.472c33.109333 0 55.466667-30.890667 77.141333-60.586667a297.301333 297.301333 0 0 1 23.04-29.354667 248.661333 248.661333 0 0 1 26.282667 32.597334c21.845333 29.866667 42.666667 58.368 74.410667 58.368h99.328a32.938667 32.938667 0 0 0 26.112-52.565334L900.608 213.333333a32.938667 32.938667 0 1 0-53.077333 39.253334l61.44 83.285333h-29.696A226.474667 226.474667 0 0 1 853.333333 304.298667c-22.357333-30.549333-45.397333-62.293333-80.042666-62.634667-32.426667 0-54.442667 30.208-75.605334 59.562667a221.866667 221.866667 0 0 1-27.306666 34.133333H634.88l62.976-83.456a32.938667 32.938667 0 0 0-6.314667-46.250667 34.133333 34.133333 0 0 0-19.968-7.338666z"  horiz-adv-x="1024" />

    
    <glyph glyph-name="-32" unicode="&#58936;" d="M508.586667-55.637333A439.637333 439.637333 0 0 0 136.533333 616.277333a32.938667 32.938667 0 1 0 55.808-34.986666 373.077333 373.077333 0 0 1 513.877334-513.877334 32.938667 32.938667 0 1 0 34.133333-55.808 436.736 436.736 0 0 0-231.765333-67.242666zM858.794667 145.066667a31.744 31.744 0 0 0-17.066667 4.608 32.938667 32.938667 0 0 0-11.776 45.056 373.077333 373.077333 0 0 1-508.928 512 32.938667 32.938667 0 1 0-33.109333 57.002666A439.125333 439.125333 0 0 0 887.466667 162.133333a33.109333 33.109333 0 0 0-28.672-17.066666zM860.16 146.773333a33.109333 33.109333 0 0 0-23.893333 56.32l113.834666 113.834667a32.938667 32.938667 0 0 0 46.592-46.592l-113.664-113.834667a32.768 32.768 0 0 0-22.869333-9.728zM50.005333 452.266667a32.938667 32.938667 0 0 0-23.210666 56.32l113.664 113.664A32.938667 32.938667 0 1 0 187.733333 575.488l-114.346666-113.834667a34.133333 34.133333 0 0 0-23.381334-9.386666zM514.56 100.010667a32.938667 32.938667 0 0 0-32.938667 33.109333V609.621333a32.938667 32.938667 0 1 0 65.877334 0V133.12a32.938667 32.938667 0 0 0-32.938667-33.109333zM512.853333 338.432c-82.773333 0-150.016 55.978667-150.016 124.757333s67.242667 124.757333 150.016 124.757334 150.186667-55.978667 150.186667-124.757334a33.109333 33.109333 0 0 0-66.048 0c0 31.914667-38.570667 58.709333-84.138667 58.709334s-84.138667-26.794667-84.138666-58.709334 38.570667-58.88 84.138666-58.88a32.938667 32.938667 0 1 0 0-65.877333zM512.853333 154.794667c-82.773333 0-150.016 55.978667-150.016 124.757333a32.938667 32.938667 0 0 0 65.877334 0c0-31.914667 38.570667-58.88 84.138666-58.88S597.333333 247.466667 597.333333 279.552s-38.570667 58.88-84.138666 58.88a32.938667 32.938667 0 1 0 0 65.877333c82.773333 0 150.186667-55.978667 150.186666-124.757333s-67.754667-124.757333-150.528-124.757333z"  horiz-adv-x="1024" />

    
    <glyph glyph-name="-33" unicode="&#58937;" d="M520.192 110.933333a212.48 212.48 0 1 0 212.309333 211.968A212.650667 212.650667 0 0 0 520.192 110.933333z m0 356.522667a144.213333 144.213333 0 1 1 144.042667-144.042667 144.213333 144.213333 0 0 1-144.042667 143.530667zM412.842667 430.933333a34.133333 34.133333 0 0 0-27.306667 13.482667L276.821333 588.8a34.133333 34.133333 0 0 0 27.136 54.613333h111.104c34.133333 0 58.026667-32.256 80.725334-63.488a304.981333 304.981333 0 0 1 24.746666-31.402666 277.674667 277.674667 0 0 1 28.330667 34.133333c22.869333 31.402667 44.544 61.098667 77.824 61.098667h104.448A34.133333 34.133333 0 0 0 758.613333 588.8l-105.301333-142.848a34.133333 34.133333 0 0 0-47.616-7.168 34.133333 34.133333 0 0 0-7.338667 47.786667l65.536 88.746666H631.466667a235.349333 235.349333 0 0 1-26.965334-33.109333c-23.381333-32.085333-47.616-65.194667-83.797333-65.706667-34.133333 0-57.002667 31.744-79.189333 62.464a222.890667 222.890667 0 0 1-29.013334 35.328h-39.594666L439.978667 486.4a34.133333 34.133333 0 0 0-27.136-54.784zM409.6 575.317333zM909.824 372.565333a66.389333 66.389333 0 0 0-47.104 19.456l-48.128 47.957334A33.109333 33.109333 0 1 0 861.354667 486.4l47.957333-48.128L955.733333 484.522667a32.938667 32.938667 0 0 0 46.592-46.592l-45.909333-45.909334a66.389333 66.389333 0 0 0-46.592-19.456zM55.637333 257.877333a32.938667 32.938667 0 0 0-23.381333 9.557334 34.133333 34.133333 0 0 0 0 46.762666l48.128 47.957334a66.730667 66.730667 0 0 0 94.208 0L220.501333 315.733333a32.938667 32.938667 0 1 0-46.592-46.592L128 315.733333l-48.981333-48.298666a32.597333 32.597333 0 0 0-23.381334-9.557334zM908.8 373.077333a32.938667 32.938667 0 0 0-33.109333 32.938667V642.218667a93.013333 93.013333 0 0 1-93.013334 93.013333H252.416a93.013333 93.013333 0 0 1-93.013333-93.013333 33.109333 33.109333 0 0 0-66.048 0 159.232 159.232 0 0 0 159.061333 159.061333h530.261333a159.232 159.232 0 0 0 159.061334-159.061333v-236.202667a32.938667 32.938667 0 0 0-32.938667-32.938667zM782.677333-47.104H252.416a159.232 159.232 0 0 0-159.061333 159.061333V348.672a33.109333 33.109333 0 0 0 66.048 0v-236.714667a93.013333 93.013333 0 0 1 93.013333-93.013333h530.261333a93.013333 93.013333 0 0 1 93.013334 93.013333 33.109333 33.109333 0 0 0 66.048 0 159.232 159.232 0 0 0-159.061334-159.061333z"  horiz-adv-x="1024" />

    
    <glyph glyph-name="-34" unicode="&#58938;" d="M512-110.933333a494.933333 494.933333 0 1 0 435.2 258.901333A33.109333 33.109333 0 0 0 889.173333 179.2 429.056 429.056 0 1 1 512-44.885333a425.301333 425.301333 0 0 1 261.461333 88.746666A32.938667 32.938667 0 0 0 813.738667-8.533333 490.666667 490.666667 0 0 0 512-110.933333zM865.962667 189.098667a139.776 139.776 0 0 0-139.776 139.605333v117.418667A139.605333 139.605333 0 0 0 989.866667 510.464a32.938667 32.938667 0 1 0-58.368-30.549333 73.557333 73.557333 0 0 1-139.093334-34.133334v-117.418666a73.557333 73.557333 0 0 1 142.165334-26.794667 32.938667 32.938667 0 0 0 61.44-24.064 140.970667 140.970667 0 0 0-130.048-88.405333zM160.256 189.098667a140.629333 140.629333 0 0 0-129.877333 88.746666 32.938667 32.938667 0 1 0 61.269333 24.064 74.581333 74.581333 0 0 1 68.266667-46.762666 73.728 73.728 0 0 1 73.728 73.557333v117.418667a73.557333 73.557333 0 0 1-139.093334 34.133333 32.938667 32.938667 0 0 0-58.538666 30.549333 139.605333 139.605333 0 0 0 263.509333-64.341333v-117.418667a139.776 139.776 0 0 0-139.264-139.946666zM510.976 314.709333A32.768 32.768 0 0 0 477.866667 347.648v72.704a32.938667 32.938667 0 0 0 65.877333 0v-72.704a32.768 32.768 0 0 0-32.768-32.938667z"  horiz-adv-x="1024" />

    
    <glyph glyph-name="-35" unicode="&#58939;" d="M512.853333-110.933333a494.933333 494.933333 0 1 0 494.933334 494.933333 489.813333 489.813333 0 0 0-102.4-302.592 32.938667 32.938667 0 0 0-52.224 40.277333 428.032 428.032 0 1 1-73.557334-74.410666 32.938667 32.938667 0 1 0 40.96-51.2A490.154667 490.154667 0 0 0 512.853333-110.933333zM462.165333 130.389333a117.418667 117.418667 0 0 0-84.48 35.669334l-83.797333 86.528a117.76 117.76 0 0 0 2.56 165.546666l185.685333 180.906667a114.688 114.688 0 0 0 83.626667 32.938667A117.077333 117.077333 0 0 0 648.533333 596.309333l83.797334-86.528a117.589333 117.589333 0 0 0-2.56-166.229333l-44.032-42.837333a33.109333 33.109333 0 0 0-46.08 47.445333l44.202666 42.666667a51.2 51.2 0 0 1 1.194667 73.045333l-83.968 86.528a51.2 51.2 0 0 1-36.352 15.701333 51.2 51.2 0 0 1-36.010667-14.506666L342.357333 371.541333A51.2 51.2 0 0 1 341.333333 298.666667l83.968-86.528a51.2 51.2 0 0 1 73.045334-1.024l60.416 58.538666a32.938667 32.938667 0 0 0 45.909333-47.445333l-60.416-58.538667a117.930667 117.930667 0 0 0-82.090667-33.28zM877.397333 67.413333A32.938667 32.938667 0 0 0 853.333333 76.8L637.952 300.202667a32.938667 32.938667 0 1 0 47.274667 45.909333L901.12 123.392a33.109333 33.109333 0 0 0-23.722667-55.978667zM798.72-11.946667a32.938667 32.938667 0 0 0-23.722667 10.069334L557.738667 222.378667a32.938667 32.938667 0 0 0 47.274666 45.909333l217.258667-224.256a32.768 32.768 0 0 0 0-46.592 32.256 32.256 0 0 0-23.552-9.386667z"  horiz-adv-x="1024" />

    
    <glyph glyph-name="-36" unicode="&#58940;" d="M405.674667 302.762667a259.242667 259.242667 0 1 0 211.285333 109.226666A32.938667 32.938667 0 1 0 563.2 450.218667a193.024 193.024 0 1 1-157.525333-81.408 33.109333 33.109333 0 0 0 0-66.048zM761.344-52.906667a33.109333 33.109333 0 0 0-33.109333 33.109334 322.56 322.56 0 0 1-645.12 0 33.109333 33.109333 0 1 0-66.048 0 388.608 388.608 0 0 0 777.216 0 32.938667 32.938667 0 0 0-32.938667-33.109334zM754.858667 348.672a32.938667 32.938667 0 0 0-19.968 59.221333 193.024 193.024 0 0 1-116.565334 346.965334 33.109333 33.109333 0 0 0 0 66.048 259.072 259.072 0 0 0 156.501334-465.578667 34.133333 34.133333 0 0 0-19.968-6.656zM973.994667-52.906667a33.109333 33.109333 0 0 0-33.109334 33.109334 322.901333 322.901333 0 0 1-192.682666 295.424 32.938667 32.938667 0 1 0 26.624 60.416A388.949333 388.949333 0 0 0 1006.933333-19.797333a33.109333 33.109333 0 0 0-32.938666-33.109334z"  horiz-adv-x="1024" />

    
    <glyph glyph-name="-37" unicode="&#58941;" d="M512-111.957333a494.933333 494.933333 0 1 0 431.616 252.586666 32.938667 32.938667 0 0 0-57.514667 32.426667 428.373333 428.373333 0 1 1-173.909333-169.642667 32.938667 32.938667 0 1 0 30.72-58.368A494.933333 494.933333 0 0 0 512-111.957333zM261.973333 315.733333a73.728 73.728 0 1 0 73.728 73.728A73.898667 73.898667 0 0 0 261.973333 315.733333z m0 81.578667a7.850667 7.850667 0 0 1-7.68-7.850667 7.68 7.68 0 0 1 7.68-7.68 7.850667 7.850667 0 0 1 7.850667 7.68 8.021333 8.021333 0 0 1-7.850667 8.021334zM512 315.733333a73.728 73.728 0 1 0 73.728 73.728A73.898667 73.898667 0 0 0 512 315.733333z m0 81.578667a8.021333 8.021333 0 0 1-7.850667-7.850667 7.850667 7.850667 0 0 1 15.701334 0 8.021333 8.021333 0 0 1-7.850667 8.021334zM762.026667 315.733333A73.728 73.728 0 1 0 836.266667 389.632 73.728 73.728 0 0 0 762.026667 315.733333z m0 81.578667a8.021333 8.021333 0 0 1-7.850667-7.850667 7.850667 7.850667 0 0 1 7.850667-7.68 7.68 7.68 0 0 1 7.68 7.68 7.850667 7.850667 0 0 1-7.68 8.021334zM933.888-82.090667a45.568 45.568 0 0 0-15.701333 2.901334L782.677333-25.6a32.938667 32.938667 0 1 0 24.064 61.44l83.968-32.938667-34.133333 78.165334a32.938667 32.938667 0 1 0 60.416 26.282666L972.8-22.186667a43.008 43.008 0 0 0-39.424-59.904z m-21.162667 34.133334z"  horiz-adv-x="1024" />

    
    <glyph glyph-name="-38" unicode="&#58942;" d="M512-110.933333a494.933333 494.933333 0 1 0 435.2 258.901333A33.109333 33.109333 0 0 0 889.173333 179.2 429.056 429.056 0 1 1 512-44.885333a425.301333 425.301333 0 0 1 261.461333 88.746666A32.938667 32.938667 0 0 0 813.738667-8.533333 490.666667 490.666667 0 0 0 512-110.933333zM512 82.602667a32.768 32.768 0 0 0-32.938667 32.938666V652.458667a32.938667 32.938667 0 1 0 65.877334 0v-536.917334A32.768 32.768 0 0 0 512 82.602667zM512 351.061333c-90.965333 0-164.864 61.098667-164.864 136.533334s73.898667 136.533333 164.864 136.533333 164.864-61.269333 164.864-136.533333a32.938667 32.938667 0 1 0-65.877333 0c0 38.229333-45.397333 70.485333-98.986667 70.485333s-98.986667-32.256-98.986667-70.485333 45.397333-70.485333 98.986667-70.485334a32.938667 32.938667 0 0 0 0-65.877333zM512 144.042667c-90.965333 0-164.864 61.269333-164.864 136.533333a32.938667 32.938667 0 0 0 65.877333 0c0-38.229333 45.397333-70.485333 98.986667-70.485333s98.986667 32.256 98.986667 70.485333-45.397333 70.485333-98.986667 70.485333a32.938667 32.938667 0 0 0 0 65.877334c90.965333 0 164.864-61.098667 164.864-136.533334s-73.898667-136.362667-164.864-136.362666z"  horiz-adv-x="1024" />

    
    <glyph glyph-name="-39" unicode="&#58945;" d="M512-110.933333a494.933333 494.933333 0 1 0 466.090667 327.850666 32.938667 32.938667 0 0 0-62.122667 22.357334 429.568 429.568 0 1 1-102.4-160.085334 32.938667 32.938667 0 1 0 46.421333-46.933333A491.690667 491.690667 0 0 0 512-110.933333zM489.301333 415.914667a32.597333 32.597333 0 0 0-26.282666 13.141333l-95.402667 126.976a33.109333 33.109333 0 0 0 52.906667 39.594667l95.232-126.293334a32.938667 32.938667 0 0 0-6.656-46.250666 32.426667 32.426667 0 0 0-19.797334-7.168zM537.429333 415.914667A32.768 32.768 0 0 0 512 469.333333l95.232 126.976a32.938667 32.938667 0 1 0 52.736-39.594666L563.2 429.056a32.768 32.768 0 0 0-25.770667-13.141333zM677.205333 387.413333H349.696a32.938667 32.938667 0 1 0 0 65.877334h327.509333a32.938667 32.938667 0 0 0 0-65.877334zM677.205333 233.301333H349.696a32.938667 32.938667 0 1 0 0 65.877334h327.509333a32.938667 32.938667 0 0 0 0-65.877334zM513.365333 153.770667a33.109333 33.109333 0 0 0-32.938666 33.109333V420.352a33.109333 33.109333 0 0 0 66.048 0v-233.472a33.109333 33.109333 0 0 0-33.109334-33.109333z"  horiz-adv-x="1024" />

    
    <glyph glyph-name="-40" unicode="&#58946;" d="M512-111.957333A494.933333 494.933333 0 1 0 946.005333 145.066667a34.133333 34.133333 0 1 0-59.562666 32.768 426.666667 426.666667 0 1 1-374.442667-221.866667 422.741333 422.741333 0 0 1 197.12 48.128 34.133333 34.133333 0 0 0 31.402667-60.245333A496.810667 496.810667 0 0 0 512-111.957333zM654.848 103.594667a35.84 35.84 0 0 0-7.338667 0c-74.410667 17.066667-234.666667 111.786667-303.786666 210.090666-59.392 84.309333-86.357333 167.082667-80.042667 246.101334s96.938667 119.466667 107.349333 123.733333h1.877334a68.266667 68.266667 0 0 0 55.125333 0 60.074667 60.074667 0 0 0 29.696-31.914667c8.704-21.674667 49.834667-122.197333 54.784-138.24a58.197333 58.197333 0 0 0-11.946667-58.197333l-25.258666-27.818667a51.2 51.2 0 0 0 2.218666-8.362666c6.314667-27.818667 79.701333-86.186667 109.568-103.253334l4.266667 2.218667 2.901333 1.194667c3.925333 2.389333 13.824 10.410667 19.285334 14.677333s11.093333 8.704 15.018666 11.605333A47.957333 47.957333 0 0 0 682.666667 348.16c134.485333-43.008 145.066667-54.613333 150.869333-60.757333 18.090667-19.626667 25.941333-37.034667 14.848-73.898667a192.853333 192.853333 0 0 0-47.104-68.266667 34.133333 34.133333 0 0 0-47.104 48.981334 140.458667 140.458667 0 0 1 29.184 38.912l1.536 5.973333c-17.066667 8.362667-74.581333 28.672-124.245333 44.714667l-4.266667-3.413334a157.184 157.184 0 0 0-36.352-24.576l-2.56-1.536a52.224 52.224 0 0 0-55.637333-2.389333c-1.365333 0-129.877333 77.141333-149.504 149.845333a68.266667 68.266667 0 0 0 10.410666 69.12l24.064 26.624c-6.144 17.066667-28.672 72.704-49.493333 123.904-17.066667-7.850667-62.976-35.328-65.536-66.218666-4.949333-62.805333 17.066667-130.56 68.266667-201.557334 57.514667-81.578667 200.192-168.96 262.997333-182.784a34.133333 34.133333 0 0 0-7.338667-67.242666z m-13.312 190.976z m-45.226667 25.088h-1.365333zM452.266667 503.466667z"  horiz-adv-x="1024" />

    
    <glyph glyph-name="-41" unicode="&#58947;" d="M512 237.397333a204.8 204.8 0 0 0-104.106667 28.501334L63.829333 469.333333a95.061333 95.061333 0 0 0 0 163.498667l343.722667 204.8a204.8 204.8 0 0 0 209.578667 0l343.722666-204.8a95.061333 95.061333 0 0 0 0-163.498667L616.106667 265.898667a204.8 204.8 0 0 0-104.106667-28.501334z m-70.485333 85.333334a138.24 138.24 0 0 1 140.970666 0L926.72 525.994667a29.184 29.184 0 0 1 0 50.005333l-343.722667 204.8a138.410667 138.410667 0 0 1-141.994666 0l-343.722667-204.8a29.184 29.184 0 0 1 0-50.005333zM235.178667 20.992a33.109333 33.109333 0 0 0-33.109334 33.109333V401.066667a33.109333 33.109333 0 0 0 66.048 0v-346.965334a32.938667 32.938667 0 0 0-32.938666-33.109333zM778.752 20.992a32.938667 32.938667 0 0 0-32.938667 33.109333V401.066667a33.109333 33.109333 0 0 0 66.048 0v-346.965334a33.109333 33.109333 0 0 0-33.109333-33.109333zM506.88-98.304c-173.738667 0-304.810667 65.536-304.810667 152.405333a33.109333 33.109333 0 0 0 66.048 0c0-35.328 93.013333-86.528 238.933334-86.528s238.933333 51.2 238.933333 86.528a33.109333 33.109333 0 0 0 66.048 0c-0.170667-86.869333-131.242667-152.405333-305.152-152.405333zM942.421333 20.992a33.109333 33.109333 0 0 0-33.109333 33.109333V331.946667a33.109333 33.109333 0 0 0 66.048 0v-277.845334a32.938667 32.938667 0 0 0-32.938667-33.109333z"  horiz-adv-x="1024" />

    
    <glyph glyph-name="-42" unicode="&#58948;" d="M857.088-110.933333h-85.333333A73.216 73.216 0 0 0 699.733333-36.864a32.938667 32.938667 0 0 0 32.938667 32.597333 32.938667 32.938667 0 0 0 32.768-34.133333A6.485333 6.485333 0 0 1 768-42.666667a6.997333 6.997333 0 0 1 4.949333-2.048h85.333334a83.797333 83.797333 0 0 1 83.797333 83.797334V729.258667a83.968 83.968 0 0 1-83.797333 83.968H166.912a83.968 83.968 0 0 1-83.797333-83.968v-690.176a83.797333 83.797333 0 0 1 83.797333-83.797334h281.429333a9.728 9.728 0 0 1 9.728 9.728V236.714667a68.266667 68.266667 0 0 0 68.266667 68.266666h170.666667a68.266667 68.266667 0 0 0 49.664-20.821333A69.632 69.632 0 0 0 768 233.984l-1.194667-159.402667A32.938667 32.938667 0 0 0 733.866667 41.813333a32.938667 32.938667 0 0 0-34.133334 33.28l1.365334 159.573334a3.754667 3.754667 0 0 1-1.194667 2.901333 4.437333 4.437333 0 0 1-2.730667 1.194667h-170.666666a2.389333 2.389333 0 0 1-2.389334-2.389334v-271.36A75.776 75.776 0 0 0 448.341333-110.933333H166.912A150.016 150.016 0 0 0 17.066667 39.082667V729.258667A150.016 150.016 0 0 0 166.912 878.933333h690.176A150.016 150.016 0 0 0 1006.933333 729.258667v-690.176A150.016 150.016 0 0 0 857.088-110.933333zM358.4 534.357333a33.109333 33.109333 0 0 0-34.133333 32.938667V846.165333a33.109333 33.109333 0 0 0 66.048 0v-278.869333A32.938667 32.938667 0 0 0 358.4 534.357333zM665.6 534.357333a32.938667 32.938667 0 0 0-32.938667 32.938667V846.165333a33.109333 33.109333 0 0 0 66.048 0v-278.869333A33.109333 33.109333 0 0 0 665.6 534.357333zM204.8 380.416A187.733333 187.733333 0 0 0 17.066667 567.296a33.109333 33.109333 0 1 0 66.048 0 121.002667 121.002667 0 0 1 241.834666 0 33.109333 33.109333 0 1 0 66.048 0A187.733333 187.733333 0 0 0 204.8 380.416zM512 380.416a187.733333 187.733333 0 0 0-187.733333 186.88 33.109333 33.109333 0 1 0 66.048 0 121.002667 121.002667 0 0 1 242.005333 0 33.109333 33.109333 0 1 0 66.048 0A187.733333 187.733333 0 0 0 512 380.416zM819.2 380.416a187.733333 187.733333 0 0 0-186.197333 186.88 33.109333 33.109333 0 1 0 66.048 0 121.002667 121.002667 0 0 1 241.834666 0 33.109333 33.109333 0 1 0 66.048 0 187.733333 187.733333 0 0 0-187.733333-186.88z"  horiz-adv-x="1024" />

    
    <glyph glyph-name="-43" unicode="&#58949;" d="M512 169.472a34.133333 34.133333 0 0 0-34.133333 34.133333V564.394667a34.133333 34.133333 0 0 0 68.266666 0v-360.789334a34.133333 34.133333 0 0 0-34.133333-34.133333zM751.786667 485.546667h-73.728a34.133333 34.133333 0 0 0 0 68.266666h73.728a34.133333 34.133333 0 0 0 0-68.266666zM751.786667 352.085333h-73.728a34.133333 34.133333 0 0 0 0 68.266667h73.728a34.133333 34.133333 0 0 0 0-68.266667zM751.786667 218.624h-73.728a34.133333 34.133333 0 1 0 0 68.266667h73.728a34.133333 34.133333 0 0 0 0-68.266667zM344.746667 485.546667h-73.728a34.133333 34.133333 0 1 0 0 68.266666h73.728a34.133333 34.133333 0 0 0 0-68.266666zM344.746667 352.085333h-73.728a34.133333 34.133333 0 1 0 0 68.266667h73.728a34.133333 34.133333 0 0 0 0-68.266667zM344.746667 218.624h-73.728a34.133333 34.133333 0 0 0 0 68.266667h73.728a34.133333 34.133333 0 1 0 0-68.266667zM512-93.866667a102.4 102.4 0 0 0-60.928 19.456c-4.266667 3.242667-5.973333 3.242667-6.826667 3.242667H116.394667a34.133333 34.133333 0 0 0-8.362667 1.024A101.376 101.376 0 0 0 17.066667 27.818667v750.933333A102.4 102.4 0 0 0 123.562667 877.226667h314.197333a102.4 102.4 0 0 0 66.730667-29.013334q4.096-3.584 8.192-6.656l8.533333 6.997334a97.792 97.792 0 0 0 65.024 28.672h314.197333A102.4 102.4 0 0 0 1006.933333 778.922667V247.466667a33.109333 33.109333 0 0 0-66.048 0V778.922667A37.717333 37.717333 0 0 1 900.437333 810.666667H586.24c-6.314667 0-11.264-3.584-22.698667-13.312a159.402667 159.402667 0 0 0-28.16-19.968 51.2 51.2 0 0 0-46.933333 0 172.544 172.544 0 0 0-25.941333 19.797333c-12.458667 10.24-17.066667 13.994667-24.746667 13.994667H123.562667a37.717333 37.717333 0 0 1-40.448-32.256v-750.933334a37.717333 37.717333 0 0 1 40.448-32.256H443.733333a76.629333 76.629333 0 0 0 46.421334-17.066666 38.4 38.4 0 0 1 42.666666 0 76.629333 76.629333 0 0 0 46.421334 17.066666h340.821333a17.066667 17.066667 0 0 1 17.066667 17.066667V42.666667a33.109333 33.109333 0 0 0 66.048 0v-29.866667a82.602667 82.602667 0 0 0-82.432-82.602667H580.266667s-2.389333 0-6.826667-3.242666A102.4 102.4 0 0 0 512-93.866667z"  horiz-adv-x="1024" />

    
    <glyph glyph-name="-44" unicode="&#58950;" d="M733.866667 90.794667H177.664a59.221333 59.221333 0 0 0-59.392 59.221333V817.152a59.392 59.392 0 0 0 59.392 59.392H733.866667a59.392 59.392 0 0 0 59.392-59.392v-667.136A59.221333 59.221333 0 0 0 733.866667 90.794667z m-549.546667 65.877333h543.573333V810.666667H184.32zM800.256-113.322667h-551.253333a125.610667 125.610667 0 0 0-125.44 125.44l-5.290667 175.786667a33.109333 33.109333 0 0 0 66.048 1.877333l5.12-176.810666a59.904 59.904 0 0 1 59.562667-60.245334h551.253333A39.424 39.424 0 0 1 839.68-8.533333a33.109333 33.109333 0 1 0 66.048 0 105.472 105.472 0 0 0-105.472-104.789334zM872.618667 93.866667a32.938667 32.938667 0 0 0-32.938667 34.133333V735.232a33.109333 33.109333 0 0 0 66.048 0V128a33.109333 33.109333 0 0 0-33.109333-34.133333zM768-7.509333H252.586667a33.109333 33.109333 0 0 0 0 66.048H768a33.109333 33.109333 0 1 0 0-66.048z"  horiz-adv-x="1024" />

    
    <glyph glyph-name="-45" unicode="&#58951;" d="M915.285333-74.581333H108.714667A91.818667 91.818667 0 0 0 17.066667 17.237333V328.704a91.818667 91.818667 0 0 0 91.648 91.648h109.738666a33.109333 33.109333 0 0 0 0-66.048H108.714667a25.6 25.6 0 0 1-25.6-25.6v-311.466667A25.6 25.6 0 0 1 108.714667-8.533333h806.570666a25.6 25.6 0 0 1 25.6 25.770666V524.970667a25.770667 25.770667 0 0 1-25.6 25.770666H802.133333a33.109333 33.109333 0 1 0 0 66.048h113.834667A91.818667 91.818667 0 0 0 1006.933333 524.970667v-507.733334a91.818667 91.818667 0 0 0-91.648-91.818666zM327.850667 165.888a32.768 32.768 0 0 0-32.938667 32.938667V732.842667a109.909333 109.909333 0 0 0 109.568 109.738666h204.8a109.909333 109.909333 0 0 0 109.738667-109.738666v-337.578667a33.109333 33.109333 0 1 0-66.048 0V732.842667A43.690667 43.690667 0 0 1 609.109333 776.533333h-204.8a43.690667 43.690667 0 0 1-43.690666-43.690666v-534.016a32.768 32.768 0 0 0-32.768-32.938667z"  horiz-adv-x="1024" />

    
    <glyph glyph-name="-46" unicode="&#58952;" d="M377.173333-104.618667h-163.328A196.949333 196.949333 0 0 0 17.066667 91.989333V676.010667A196.949333 196.949333 0 0 0 213.845333 872.618667h583.850667a196.949333 196.949333 0 0 0 196.608-196.608v-319.829334a33.109333 33.109333 0 0 0-66.048 0V676.010667a130.730667 130.730667 0 0 1-130.56 130.56H213.845333a130.730667 130.730667 0 0 1-130.730666-130.56v-584.021334a130.730667 130.730667 0 0 1 130.730666-130.56h163.328a33.109333 33.109333 0 0 0 0-66.048zM779.605333-97.792c-33.109333 0-53.930667 1.024-60.416 1.365333-10.581333 0-57.685333-2.730667-133.802666 0a34.133333 34.133333 0 0 0-15.701334 4.778667c-55.978667 33.28-100.181333 131.242667-128.682666 202.581333a169.130667 169.130667 0 0 1-3.413334 8.533334 100.693333 100.693333 0 0 0 17.066667 99.157333c17.066667 18.261333 51.2 34.133333 113.322667 10.069333 88.917333-35.498667 144.725333-25.429333 145.237333-25.258666a35.84 35.84 0 0 0 13.482667 0s56.149333-10.24 145.066666 25.258666c61.952 24.917333 95.744 8.192 113.152-10.069333a100.864 100.864 0 0 0 17.066667-99.328c0-1.365333-1.877333-4.266667-3.413333-8.362667-28.330667-70.656-72.533333-168.618667-128.682667-201.898666a34.133333 34.133333 0 0 0-15.701333-4.778667c-29.866667-1.706667-54.442667-2.048-74.581334-2.048z m-60.416 67.413333h2.048s44.202667-2.901333 119.466667 0c20.309333 15.872 51.2 58.197333 94.890667 165.546667 1.877333 4.437333 3.242667 7.850667 4.096 10.069333a39.253333 39.253333 0 0 1-3.925334 27.818667c-3.242667 2.901333-17.066667 3.754667-40.618666-5.973333-91.136-36.352-155.818667-32.426667-176.298667-29.696-20.650667-2.730667-85.333333-6.656-176.469333 29.696-24.064 9.728-37.376 8.874667-40.618667 5.973333a39.253333 39.253333 0 0 1-3.584-27.989333c0-2.218667 2.389333-5.632 4.096-10.069334 43.861333-107.52 74.752-149.845333 95.061333-165.717333 75.434667-2.56 119.466667 0 119.466667 0z m-221.866666 176.64a1.365333 1.365333 0 0 1 0.170666 0z m443.733333 0s-0.512-0.170667-0.341333 0zM846.336 150.528a32.938667 32.938667 0 0 0-33.109333 32.938667 93.013333 93.013333 0 1 1-186.026667 0 33.109333 33.109333 0 0 0-66.048 0 159.061333 159.061333 0 0 0 318.122667 0 32.938667 32.938667 0 0 0-32.938667-32.938667zM746.154667 592.384H246.784a32.938667 32.938667 0 1 0 0 65.877333h499.370667a32.938667 32.938667 0 1 0 0-65.877333zM525.312 422.229333H258.730667a33.109333 33.109333 0 0 0 0 66.048h266.581333a33.109333 33.109333 0 0 0 0-66.048zM312.32 276.48h-53.589333a33.109333 33.109333 0 0 0 0 66.048h53.589333a33.109333 33.109333 0 1 0 0-66.048z"  horiz-adv-x="1024" />

    
    <glyph glyph-name="-47" unicode="&#58953;" d="M133.802667-110.933333A116.906667 116.906667 0 0 0 17.066667 6.314667V844.8a33.109333 33.109333 0 0 0 66.048 0v-838.485333a51.2 51.2 0 0 1 51.2-51.2 33.109333 33.109333 0 1 0 0-66.048zM973.994667-110.933333H285.525333a33.109333 33.109333 0 0 0 0 66.048h688.469334a33.109333 33.109333 0 0 0 0-66.048zM195.754667 213.333333a32.938667 32.938667 0 0 0-23.381334 56.32l223.573334 223.914667a32.938667 32.938667 0 0 0 46.250666 0l156.501334-151.381333L816.981333 554.666667h-84.48a33.109333 33.109333 0 0 0 0 66.048h165.546667a33.109333 33.109333 0 0 0 23.552-56.32L621.738667 273.066667a33.109333 33.109333 0 0 0-45.909334 0l-156.16 151.210666-200.533333-200.874666a34.133333 34.133333 0 0 0-23.381333-10.069334zM898.048 384a32.938667 32.938667 0 0 0-32.938667 34.133333V588.8a33.109333 33.109333 0 1 0 66.048 0v-170.666667a32.938667 32.938667 0 0 0-33.109333-34.133333z"  horiz-adv-x="1024" />

    
    <glyph glyph-name="-48" unicode="&#58954;" d="M220.842667 28.842667c-63.658667 0-116.565333 0-131.754667 0.853333a61.269333 61.269333 0 0 0-53.589333 32.597333A113.664 113.664 0 0 0 40.96 162.133333a1155.754667 1155.754667 0 0 0 100.352 119.466667c106.666667 199.338667 93.354667 373.248 93.184 375.466667-0.853333 9.898667-1.024 61.781333 72.021333 121.173333S506.88 835.584 512 835.584a33.109333 33.109333 0 0 0 0-66.048c-30.378667 0-119.466667-6.826667-163.498667-42.666667s-47.445333-62.464-47.786666-65.877333c1.365333-18.602667 11.434667-202.922667-102.4-414.037333a29.866667 29.866667 0 0 0-4.778667-6.656A1033.728 1033.728 0 0 1 97.792 128a59.733333 59.733333 0 0 1-5.12-32.256c51.2-2.048 415.402667 0 419.157333 0a33.109333 33.109333 0 0 0 0-66.048c-9.728 0-170.496-0.853333-290.986666-0.853333z m79.530666 631.466666z m0 1.706667v-1.024a4.778667 4.778667 0 0 0-0.170666 1.365333zM803.157333 28.842667c-121.173333 0-281.258667 0.853333-291.328 0.853333a33.109333 33.109333 0 0 0 0 66.048c3.754667 0 373.930667-2.048 419.157334 0a60.416 60.416 0 0 1-5.12 32.426667 32.938667 32.938667 0 0 0 56.832 34.133333 113.664 113.664 0 0 0 5.461333-99.328 61.269333 61.269333 0 0 0-53.589333-32.597333c-14.848-1.365333-67.754667-1.536-131.413334-1.536zM855.722667 230.4a32.768 32.768 0 0 0-29.013334 17.066667c-114.176 210.432-104.448 394.410667-102.4 414.037333 0 3.413333-4.096 30.378667-47.786666 65.877333S542.549333 770.56 512 769.536a33.109333 33.109333 0 0 0 0 66.048c5.461333 0 133.973333 0 205.824-57.514667s72.874667-111.274667 72.021333-121.002666c0-1.877333-13.141333-178.858667 95.232-378.709334a32.938667 32.938667 0 0 0-13.312-44.714666 32.426667 32.426667 0 0 0-16.042666-3.242667z m-131.925334 432.128a4.437333 4.437333 0 0 0 0-1.194667 3.413333 3.413333 0 0 1 0 1.194667zM568.32 772.778667a32.938667 32.938667 0 0 0-32.938667 33.109333 7.168 7.168 0 0 1-6.314666 6.997333h-31.061334a7.338667 7.338667 0 0 1-7.168-6.997333 32.938667 32.938667 0 1 0-65.877333 0A73.045333 73.045333 0 0 0 498.005333 878.933333H529.066667a73.045333 73.045333 0 0 0 73.045333-73.045333 32.938667 32.938667 0 0 0-33.792-33.109333zM513.536-110.933333a128.341333 128.341333 0 0 0-128.170667 128.341333 32.938667 32.938667 0 1 0 65.877334 0 62.464 62.464 0 0 1 124.757333 0 32.938667 32.938667 0 0 0 65.877333 0A128.341333 128.341333 0 0 0 513.536-110.933333zM666.624 345.770667H665.6s-66.218667 2.730667-307.2 2.730666a32.938667 32.938667 0 0 0 0 65.877334c243.541333 0 307.2-2.56 310.272-2.56a33.109333 33.109333 0 0 0-1.365333-66.048zM512 191.317333a32.938667 32.938667 0 0 0-32.938667 33.109334V557.056a32.938667 32.938667 0 0 0 65.877334 0v-332.629333A32.938667 32.938667 0 0 0 512 191.317333z"  horiz-adv-x="1024" />

    
    <glyph glyph-name="-49" unicode="&#58955;" d="M931.498667 130.730667A34.133333 34.133333 0 0 0 902.144 179.2a430.250667 430.250667 0 0 1 38.912 97.621333 34.133333 34.133333 0 0 0 40.618667 23.722667 32.938667 32.938667 0 0 0 24.234666-40.106667 491.008 491.008 0 0 0-44.885333-112.810666 34.133333 34.133333 0 0 0-29.525333-16.896zM519.338667-110.933333A499.2 499.2 0 0 0 17.066667 384a503.296 503.296 0 0 0 987.648 127.658667 32.768 32.768 0 0 0-23.722667-40.277334 34.133333 34.133333 0 0 0-40.96 23.381334A436.224 436.224 0 0 1 83.968 384 436.906667 436.906667 0 0 1 785.066667 43.861333a34.133333 34.133333 0 0 0 46.933333-5.973333 32.597333 32.597333 0 0 0-6.485333-46.421333 502.613333 502.613333 0 0 0-306.176-102.4zM545.109333 81.92a34.133333 34.133333 0 0 0-23.552 9.728l-273.066666 268.970667a32.938667 32.938667 0 0 0 0 46.762666l273.066666 269.824a34.133333 34.133333 0 0 0 36.352 7.168 33.109333 33.109333 0 0 0 20.821334-30.549333v-124.074667H972.8a32.938667 32.938667 0 1 0 0-65.877333H545.109333a33.109333 33.109333 0 0 0-34.133333 32.938667v77.312L318.634667 384 512 194.389333v77.653334a34.133333 34.133333 0 0 0 34.133333 32.938666h426.666667a33.109333 33.109333 0 1 0 0-66.048H578.730667v-124.074666a32.938667 32.938667 0 0 0-20.650667-30.378667 34.133333 34.133333 0 0 0-12.970667-2.56z"  horiz-adv-x="1024" />

    
    <glyph glyph-name="-50" unicode="&#58956;" d="M499.370667 129.194667a107.349333 107.349333 0 0 0-76.117334 31.402666L26.794667 557.226667a32.938667 32.938667 0 1 0 46.592 46.592l396.629333-396.458667a41.472 41.472 0 0 1 58.709333 0L950.613333 629.248a32.938667 32.938667 0 0 0 46.592-46.762667L575.317333 160.597333a106.666667 106.666667 0 0 0-75.946666-31.402666z"  horiz-adv-x="1024" />

    
    <glyph glyph-name="-51" unicode="&#58957;" d="M792.576-108.032a32.938667 32.938667 0 0 0-9.728 64.341333c95.914667 30.208 125.44 76.117333 151.893333 128.512 9.216 18.432 8.362667 30.208-2.901333 36.010667l-2.56 1.194667c-71.338667 41.984-188.586667 110.421333-198.997333 115.712a20.309333 20.309333 0 0 1-4.949334 1.877333 37.376 37.376 0 0 1-10.581333-12.629333c-65.194667-102.4-164.864-61.781333-197.632-48.469334l-5.12 2.048c-41.130667 17.066667-130.56 102.4-191.658667 184.149334a146.261333 146.261333 0 0 0-30.378666 119.466666 172.202667 172.202667 0 0 0 79.530666 106.496 10.069333 10.069333 0 0 1 2.218667 2.389334 14.506667 14.506667 0 0 1-1.877333 5.973333c0 0.853333-1.194667 1.706667-1.706667 2.730667-41.984 71.68-110.762667 187.733333-122.197333 204.8A41.472 41.472 0 0 1 221.866667 808.96a338.602667 338.602667 0 0 1-100.010667-70.314667l-1.194667-1.024C92.842667 713.386667 81.92 675.157333 83.114667 605.866667c0-178.176 395.264-614.4 580.266666-639.146667a32.938667 32.938667 0 1 0-8.874666-65.365333c-117.76 16.042667-282.624 155.648-397.653334 280.917333C200.704 243.2 17.066667 455.509333 17.066667 604.842667c-1.024 62.976 5.12 134.314667 59.733333 182.101333C119.466667 827.733333 175.445333 864.938667 205.994667 872.789333s72.192 2.048 91.989333-24.405333c10.24-13.653333 98.474667-163.669333 126.464-211.456a71.68 71.68 0 0 0-17.066667-99.669333 36.181333 36.181333 0 0 0-3.413333-2.048 107.349333 107.349333 0 0 1-49.493333-64 80.384 80.384 0 0 1 18.602666-66.901334c63.146667-85.333333 142.506667-153.6 162.986667-162.304l5.802667-2.389333c41.301333-17.066667 84.138667-28.842667 116.736 22.357333 14.336 23.381333 46.762667 59.733333 99.157333 35.669334 10.24-4.608 131.584-75.605333 203.776-118.101334a85.333333 85.333333 0 0 0 40.448-45.568 97.621333 97.621333 0 0 0-8.533333-78.848c-29.354667-58.368-70.656-123.904-191.146667-161.621333a32.426667 32.426667 0 0 0-9.728-1.536zM246.613333 807.253333z"  horiz-adv-x="1024" />

    
    <glyph glyph-name="-52" unicode="&#58958;" d="M733.866667-110.933333a33.109333 33.109333 0 0 0-23.381334 9.728L288.597333 320.682667a107.861333 107.861333 0 0 0 0 152.064L685.226667 869.205333a32.938667 32.938667 0 1 0 46.592-46.592L335.36 425.984a41.472 41.472 0 0 1 0-58.709333L757.248-54.613333A33.109333 33.109333 0 0 0 733.866667-110.933333z"  horiz-adv-x="1024" />

    
    <glyph glyph-name="-53" unicode="&#58959;" d="M679.936-106.837333H351.402667a85.333333 85.333333 0 0 0-85.333334 85.333333V212.48a14.677333 14.677333 0 0 1-3.925333 9.728L25.770667 474.624a32.426667 32.426667 0 0 0 47.445333 44.373333l236.202667-252.416a79.36 79.36 0 0 0 21.333333-54.101333v-233.813333A20.650667 20.650667 0 0 1 351.402667-42.666667h328.533333a20.821333 20.821333 0 0 1 20.821333 20.650667v34.133333a32.426667 32.426667 0 1 0 64.853334 0v-34.133333a85.333333 85.333333 0 0 0-85.674667-84.821333zM733.866667 120.832a32.426667 32.426667 0 0 0-32.426667 32.426667V213.333333a78.336 78.336 0 0 0 20.48 53.077334l229.205333 252.586666a32.426667 32.426667 0 1 0 48.128-43.690666L769.365333 222.378667a13.994667 13.994667 0 0 1-3.754666-9.386667v-59.733333a32.426667 32.426667 0 0 0-31.744-32.426667zM974.506667 558.421333H49.493333a32.426667 32.426667 0 1 0 0 64.853334h925.013334a32.426667 32.426667 0 0 0 0-64.853334zM513.706667 649.728a32.426667 32.426667 0 0 0-32.426667 32.597333V842.410667a32.597333 32.597333 0 0 0 65.024 0v-160.085334a32.597333 32.597333 0 0 0-32.597333-32.597333zM736.938667 649.728a32.597333 32.597333 0 0 0-22.869334 55.466667l113.152 113.322666a32.426667 32.426667 0 1 0 45.909334-45.909333l-113.322667-113.322667a32.256 32.256 0 0 0-22.869333-9.557333zM290.133333 649.728a32.597333 32.597333 0 0 0-23.04 9.557333l-112.64 113.322667a32.426667 32.426667 0 1 0 45.738667 45.909333l113.322667-113.322666A32.597333 32.597333 0 0 0 290.133333 649.728zM512 88.064a32.426667 32.426667 0 0 0-32.426667 32.426667V186.026667a32.426667 32.426667 0 0 0 64.853334 0v-65.536a32.426667 32.426667 0 0 0-32.426667-32.426667z"  horiz-adv-x="1024" />

    
    <glyph glyph-name="-54" unicode="&#58960;" d="M512-104.789333a494.933333 494.933333 0 1 0 437.077333 262.826666 32.938667 32.938667 0 1 0-58.197333 30.890667 428.885333 428.885333 0 1 1-143.701333-157.525333 32.938667 32.938667 0 1 0 36.181333-55.125334A492.544 492.544 0 0 0 512-104.789333zM512 87.210667a32.938667 32.938667 0 0 0-34.133333 32.938666V660.309333a33.109333 33.109333 0 0 0 66.048 0v-540.16A32.938667 32.938667 0 0 0 512 87.210667zM781.141333 357.205333H240.981333a33.109333 33.109333 0 0 0 0 66.048h540.16a33.109333 33.109333 0 1 0 0-66.048z"  horiz-adv-x="1024" />

    
    <glyph glyph-name="-55" unicode="&#58961;" d="M898.389333-110.933333H125.610667A108.544 108.544 0 0 0 17.066667-2.389333V770.389333A108.544 108.544 0 0 0 125.610667 878.933333h772.778666A108.544 108.544 0 0 0 1006.933333 770.389333v-772.778666A108.544 108.544 0 0 0 898.389333-110.933333zM125.610667 812.885333a42.666667 42.666667 0 0 1-42.496-42.496v-772.778666a42.666667 42.666667 0 0 1 42.496-42.496h772.778666a42.666667 42.666667 0 0 1 42.496 42.496V770.389333a42.666667 42.666667 0 0 1-42.496 42.496zM588.288 112.64c-42.666667 0-68.266667 1.365333-76.288 1.706667-11.946667 0-71.338667-3.413333-168.106667 0a32.256 32.256 0 0 0-15.701333 4.608C259.925333 159.914667 204.8 281.6 170.666667 369.152l-4.437334 11.093333c-8.704 18.944-15.701333 79.018667 18.944 115.541334 20.138667 21.162667 59.562667 40.277333 133.290667 10.752 114.858667-45.909333 187.733333-32.426667 187.733333-32.256a32.597333 32.597333 0 0 0 13.482667 0s72.874667-13.482667 187.733333 32.426666c73.728 29.354667 113.152 10.410667 133.290667-10.752 34.133333-36.522667 27.648-96.597333 18.944-115.541333l-4.437333-11.093333C819.2 281.6 764.074667 159.914667 695.808 119.125333a32.256 32.256 0 0 0-15.701333-4.608c-36.010667-1.365333-66.730667-1.877333-91.818667-1.877333z m-76.288 68.266667h2.218667s57.002667-3.584 153.6 0c26.624 19.797333 68.266667 73.557333 124.586666 213.674666 2.730667 6.997333 4.778667 11.946667 5.802667 14.165334a56.490667 56.490667 0 0 1-7.68 43.008c-8.533333 8.192-31.061333 5.973333-60.074667-5.632-115.370667-46.08-195.754667-40.106667-218.965333-36.864-23.210667-3.242667-103.594667-9.216-218.965333 36.864-29.013333 11.605333-51.2 13.824-60.074667 5.632a55.978667 55.978667 0 0 1-7.168-44.202667c0-1.024 2.56-5.973333 5.290667-12.970667 56.32-140.117333 97.962667-193.877333 124.586666-213.674666 97.109333-3.242667 153.6 0 153.6 0zM672.085333 425.301333a32.938667 32.938667 0 0 0-32.938666 32.938667 125.781333 125.781333 0 1 1-251.392 0 33.109333 33.109333 0 0 0-66.048 0 191.658667 191.658667 0 1 0 383.317333 0 32.938667 32.938667 0 0 0-32.938667-32.938667z"  horiz-adv-x="1024" />

    
    <glyph glyph-name="-56" unicode="&#58962;" d="M390.144 409.941333A122.197333 122.197333 0 1 0 512 532.138667a122.197333 122.197333 0 0 0-121.856-122.197334z m0 178.346667a56.149333 56.149333 0 1 1 56.149333-56.149333A56.32 56.32 0 0 1 390.144 588.8zM602.624 113.834667a32.938667 32.938667 0 0 0-33.109333 32.938666 179.370667 179.370667 0 1 1-358.4 0 33.109333 33.109333 0 0 0-66.048 0 245.418667 245.418667 0 0 0 490.837333 0 32.938667 32.938667 0 0 0-33.28-32.938666zM868.522667-110.933333h-699.733334a145.066667 145.066667 0 0 0-144.896 145.066666V715.776A163.328 163.328 0 0 0 187.733333 878.933333h680.789334a145.237333 145.237333 0 0 0 145.066666-145.066666v-271.530667a33.109333 33.109333 0 0 0-66.048 0V733.866667a79.018667 79.018667 0 0 1-79.018666 79.018666H187.733333a97.28 97.28 0 0 1-97.28-97.109333V34.133333a79.018667 79.018667 0 0 1 79.018667-79.018666h699.733333a79.018667 79.018667 0 0 1 79.018667 79.018666v88.917334a33.109333 33.109333 0 1 0 66.048 0v-88.917334a145.237333 145.237333 0 0 0-145.749333-145.066666zM871.765333 499.2H703.146667a32.938667 32.938667 0 1 0 0 65.877333h168.618666a32.938667 32.938667 0 1 0 0-65.877333zM871.765333 339.456H674.133333a33.109333 33.109333 0 1 0 0 66.048h197.632a33.109333 33.109333 0 1 0 0-66.048zM871.765333 179.2H725.333333a32.938667 32.938667 0 0 0 0 65.877333h146.432a32.938667 32.938667 0 1 0 0-65.877333z"  horiz-adv-x="1024" />

    
    <glyph glyph-name="-57" unicode="&#58963;" d="M913.92 478.378667h-102.4a33.109333 33.109333 0 0 0 0 66.048h102.4a23.722667 23.722667 0 0 1 23.381333 23.381333V657.066667a23.722667 23.722667 0 0 1-23.381333 23.381333H110.08A23.722667 23.722667 0 0 1 86.698667 657.066667v-90.112a23.722667 23.722667 0 0 1 23.381333-22.528h102.4a33.109333 33.109333 0 0 0 0-66.048h-102.4a89.6 89.6 0 0 0-89.429333 89.429333V657.066667a89.6 89.6 0 0 0 89.429333 90.282666h803.84A89.6 89.6 0 0 0 1003.349333 657.066667v-90.112a89.6 89.6 0 0 0-89.429333-88.576zM755.882667-110.933333H268.117333a89.429333 89.429333 0 0 0-89.258666 89.429333V511.317333a32.938667 32.938667 0 1 0 65.877333 0v-532.821333a23.381333 23.381333 0 0 1 23.381333-23.381333h487.765334a23.381333 23.381333 0 0 1 23.381333 23.381333v394.24a32.938667 32.938667 0 0 0 65.877333 0v-394.24A89.429333 89.429333 0 0 0 755.882667-110.933333zM372.565333-22.357333a32.938667 32.938667 0 0 0-32.938666 32.938666v406.186667a33.109333 33.109333 0 0 0 66.048 0v-406.186667a32.938667 32.938667 0 0 0-33.109334-32.938666zM522.752-22.357333a32.768 32.768 0 0 0-32.938667 32.938666V584.533333a32.938667 32.938667 0 1 0 65.877334 0v-573.952a32.768 32.768 0 0 0-32.938667-32.938666zM672.768-22.357333a32.938667 32.938667 0 0 0-32.938667 32.938666v406.186667a33.109333 33.109333 0 0 0 66.048 0v-406.186667a32.938667 32.938667 0 0 0-33.109333-32.938666zM349.184 681.301333a33.109333 33.109333 0 0 0-33.109333 32.938667V784.896A94.208 94.208 0 0 0 409.6 878.933333h252.245333a94.037333 94.037333 0 0 0 94.037334-94.037333 33.109333 33.109333 0 0 0-66.048 0 27.818667 27.818667 0 0 1-27.989334 27.989333H409.6a27.989333 27.989333 0 0 1-27.989333-27.989333v-70.656a33.109333 33.109333 0 0 0-32.426667-32.938667z"  horiz-adv-x="1024" />

    
    <glyph glyph-name="-58" unicode="&#58964;" d="M854.186667-117.077333H179.029333a157.184 157.184 0 0 0-156.842666 157.013333v675.84a157.184 157.184 0 0 0 156.842666 157.013333h675.157334a157.184 157.184 0 0 0 157.013333-157.013333v-380.416a32.426667 32.426667 0 0 0-64.853333 0V715.776a92.330667 92.330667 0 0 1-92.16 92.16H179.029333a92.330667 92.330667 0 0 1-91.989333-92.16v-675.84a92.330667 92.330667 0 0 1 91.989333-92.16h675.157334a92.330667 92.330667 0 0 1 92.16 92.16 32.426667 32.426667 0 1 0 64.853333 0 157.184 157.184 0 0 0-157.013333-157.013333zM382.634667 8.533333a55.125333 55.125333 0 0 0-27.989334 7.509334 55.808 55.808 0 0 0-28.16 48.64v375.466666a56.32 56.32 0 0 0 84.309334 48.64l324.266666-187.733333a56.32 56.32 0 0 0 0-97.450667l-324.266666-187.733333a55.296 55.296 0 0 0-28.16-7.338667z m8.704 416.597334v-345.429334l298.837333 172.544zM703.146667 244.736zM966.656 580.608H53.76a32.426667 32.426667 0 0 0 0 64.853333h912.896a32.426667 32.426667 0 0 0 0-64.853333zM353.450667 588.8a32.597333 32.597333 0 0 0-23.04 9.557333L121.002667 807.765333a32.426667 32.426667 0 0 0 45.909333 45.909334l209.408-209.578667A32.597333 32.597333 0 0 0 353.450667 588.8zM607.232 584.192a32.085333 32.085333 0 0 0-22.869333 9.386667L371.712 806.4a32.426667 32.426667 0 0 0 45.909333 45.909333L630.272 640a32.426667 32.426667 0 0 0-23.04-55.296zM853.333333 586.410667a32.426667 32.426667 0 0 0-22.869333 9.557333l-221.866667 221.866667a32.426667 32.426667 0 1 0 45.909334 45.909333l221.866666-221.866667A32.597333 32.597333 0 0 0 853.333333 586.410667z"  horiz-adv-x="1024" />

    
    <glyph glyph-name="-59" unicode="&#58965;" d="M978.090667 812.885333H45.909333a33.109333 33.109333 0 0 0 0 66.048h932.181334a33.109333 33.109333 0 0 0 0-66.048zM978.090667 351.061333H45.909333a32.938667 32.938667 0 0 0 0 65.877334h932.181334a32.938667 32.938667 0 0 0 0-65.877334zM978.090667-110.933333H45.909333a33.109333 33.109333 0 0 0 0 66.048h932.181334a33.109333 33.109333 0 0 0 0-66.048z"  horiz-adv-x="1024" />

    
    <glyph glyph-name="-60" unicode="&#58966;" d="M512-110.933333a494.933333 494.933333 0 1 0 433.322667 256A32.938667 32.938667 0 0 0 887.466667 176.64a429.056 429.056 0 1 1-375.466667-221.866667 425.472 425.472 0 0 1 265.898667 92.16 32.768 32.768 0 0 0 46.250666-5.290666 33.109333 33.109333 0 0 0-4.949333-46.08A490.496 490.496 0 0 0 512-110.933333zM509.952 47.274667a85.333333 85.333333 0 1 0 85.333333 85.333333 85.333333 85.333333 0 0 0-85.333333-85.333333z m0 104.448A19.285333 19.285333 0 1 1 529.066667 132.437333a19.456 19.456 0 0 1-19.114667 19.285334zM549.034667 241.834667h-74.069334a46.08 46.08 0 0 0-46.08 46.250666V659.968a46.08 46.08 0 0 0 46.08 46.08h74.069334a46.08 46.08 0 0 0 46.08-46.08v-371.882667a46.08 46.08 0 0 0-46.08-46.250666zM494.933333 307.882667h34.133334V640h-34.133334zM549.034667 640z"  horiz-adv-x="1024" />

    
    <glyph glyph-name="-61" unicode="&#58967;" d="M512-110.933333a494.933333 494.933333 0 1 0 431.616 252.757333 32.938667 32.938667 0 0 0-57.514667 32.256 427.690667 427.690667 0 1 1-173.909333-169.642667 32.938667 32.938667 0 1 0 30.72-58.368A497.664 497.664 0 0 0 512-110.933333zM512 123.221333A71.68 71.68 0 0 0 460.8 145.066667L273.066667 332.8a72.021333 72.021333 0 0 0 0 102.4l187.733333 187.733333a72.021333 72.021333 0 0 0 102.4 0l187.733333-187.733333a72.021333 72.021333 0 0 0 0-102.4L563.2 145.066667a71.68 71.68 0 0 0-51.2-21.845334z m0 455.509334a6.656 6.656 0 0 1-4.437333-1.706667l-187.733334-187.733333a6.656 6.656 0 0 1-1.706666-4.437334 5.973333 5.973333 0 0 1 1.706666-4.266666l187.733334-188.757334a5.632 5.632 0 0 1 8.874666 0l188.586667 187.733334a6.656 6.656 0 0 1 1.706667 4.437333 5.973333 5.973333 0 0 1-1.706667 4.266667l-187.733333 188.757333a6.656 6.656 0 0 1-5.290667 1.706667z"  horiz-adv-x="1024" />

    
    <glyph glyph-name="-62" unicode="&#58968;" d="M512-110.933333a494.933333 494.933333 0 1 0 435.2 258.901333A33.109333 33.109333 0 0 0 889.173333 179.2a428.714667 428.714667 0 1 1-115.712-136.533333 32.938667 32.938667 0 0 0 40.277334-51.2A490.666667 490.666667 0 0 0 512-110.933333zM512 374.272A199.509333 199.509333 0 0 0 312.149333 573.44a33.109333 33.109333 0 1 0 66.048 0 133.290667 133.290667 0 0 1 266.581334 0 32.938667 32.938667 0 1 0 65.877333 0A199.338667 199.338667 0 0 0 512 374.272zM843.946667 374.272A199.338667 199.338667 0 0 0 644.778667 573.44a32.938667 32.938667 0 1 0 65.877333 0 133.290667 133.290667 0 0 1 232.277333-89.258667 32.938667 32.938667 0 0 0 48.981334-44.202666 199.509333 199.509333 0 0 0-147.968-65.706667zM178.858667 374.272a199.168 199.168 0 0 0-146.602667 64.341333 32.938667 32.938667 0 0 0 48.469333 44.714667 133.290667 133.290667 0 0 1 231.424 90.112 33.109333 33.109333 0 1 0 66.048 0 199.509333 199.509333 0 0 0-199.338666-199.168zM512 34.816a32.938667 32.938667 0 0 0-34.133333 32.938667v238.933333a33.109333 33.109333 0 1 0 66.048 0v-238.933333A32.768 32.768 0 0 0 512 34.816zM640 153.941333H382.805333a33.109333 33.109333 0 0 0 0 66.048H640a33.109333 33.109333 0 0 0 0-66.048z"  horiz-adv-x="1024" />

    
    </font>
</defs>
</svg>
